<?xml version="1.0" encoding="UTF-8" standalone="no"?>
<!-- Generator: Adobe Illustrator 14.0.0, SVG Export Plug-In . SVG Version: 6.00 Build 43363)  -->

<svg
   xmlns:dc="http://purl.org/dc/elements/1.1/"
   xmlns:cc="http://creativecommons.org/ns#"
   xmlns:rdf="http://www.w3.org/1999/02/22-rdf-syntax-ns#"
   xmlns:svg="http://www.w3.org/2000/svg"
   xmlns="http://www.w3.org/2000/svg"
   xmlns:sodipodi="http://sodipodi.sourceforge.net/DTD/sodipodi-0.dtd"
   xmlns:inkscape="http://www.inkscape.org/namespaces/inkscape"
   width="85.039368"
   x="0px"
   version="1.1"
   y="0px"
   height="127.55905"
   viewBox="0 0 85.039368 127.55905"
   id="svg"
   xml:space="preserve"
   inkscape:version="0.48.4 r9939"
   sodipodi:docname="svg.icon.NEO_6M_GPS_icon.svg"><metadata
     id="metadata32"><rdf:RDF><cc:Work
         rdf:about=""><dc:format>image/svg+xml</dc:format><dc:type
           rdf:resource="http://purl.org/dc/dcmitype/StillImage" /></cc:Work></rdf:RDF></metadata><defs
     id="defs30" /><sodipodi:namedview
     pagecolor="#ffffff"
     bordercolor="#666666"
     borderopacity="1"
     objecttolerance="10"
     gridtolerance="10"
     guidetolerance="10"
     inkscape:pageopacity="0"
     inkscape:pageshadow="2"
     inkscape:window-width="1024"
     inkscape:window-height="721"
     id="namedview28"
     showgrid="true"
     inkscape:zoom="2.28"
     inkscape:cx="29.757343"
     inkscape:cy="23.697853"
     inkscape:window-x="0"
     inkscape:window-y="25"
     inkscape:window-maximized="1"
     inkscape:current-layer="icon"
     units="mm"
     inkscape:document-units="mm"
     showguides="true"
     inkscape:guide-bbox="true"><inkscape:grid
       type="xygrid"
       id="grid3032"
       empspacing="5"
       visible="true"
       enabled="true"
       snapvisiblegridlinesonly="true"
       spacingy="0.1mm"
       spacingx="0.1mm"
       units="mm" /></sodipodi:namedview><g
     id="icon"
     transform="translate(0,95.55904)"><path
       style="fill:#ff0000;fill-opacity:1;stroke:#787878;stroke-width:0;stroke-miterlimit:4;stroke-opacity:1;stroke-dasharray:none"
       d="M 0 0 L 0 127.5625 L 85.03125 127.5625 L 85.03125 0 L 0 0 z M 9.8125 4.5 C 11.647107 4.5 13.263613 5.4299614 14.21875 6.84375 C 14.409777 7.1265077 14.584274 7.4320635 14.71875 7.75 C 14.780922 7.8969912 14.826029 8.0653528 14.875 8.21875 C 14.931951 8.3971453 14.993183 8.5639705 15.03125 8.75 C 15.101983 9.0959238 15.125 9.4455786 15.125 9.8125 C 15.125 10.179421 15.101983 10.529076 15.03125 10.875 C 14.96045 11.220991 14.853226 11.557063 14.71875 11.875 C 14.584274 12.192937 14.409777 12.498492 14.21875 12.78125 C 13.836984 13.346477 13.346477 13.836984 12.78125 14.21875 C 12.498492 14.409777 12.192937 14.584274 11.875 14.71875 C 11.557063 14.853226 11.220991 14.96045 10.875 15.03125 C 10.702038 15.066616 10.522405 15.075623 10.34375 15.09375 C 10.165077 15.111895 9.9959607 15.125 9.8125 15.125 C 9.4455785 15.125 9.0959911 15.10205 8.75 15.03125 C 8.5639705 14.993183 8.3971453 14.931951 8.21875 14.875 C 8.0523697 14.823283 7.9089106 14.78593 7.75 14.71875 C 7.4320635 14.584274 7.1265077 14.409777 6.84375 14.21875 C 5.4299614 13.263613 4.5 11.647107 4.5 9.8125 C 4.5 9.2516717 4.5889934 8.7262826 4.75 8.21875 C 4.8017174 8.0523697 4.8390698 7.9089106 4.90625 7.75 C 5.5075627 6.3283371 6.733966 5.2210238 8.21875 4.75 C 8.3851303 4.6982826 8.5770381 4.6291164 8.75 4.59375 C 9.0959911 4.52295 9.4455785 4.5 9.8125 4.5 z M 75.21875 4.5 C 78.154122 4.5 80.53125 6.8771284 80.53125 9.8125 C 80.53125 12.747872 78.154122 15.125 75.21875 15.125 C 72.283378 15.125 69.90625 12.747872 69.90625 9.8125 C 69.90625 6.8771284 72.283378 4.5 75.21875 4.5 z M 9.8125 112.4375 C 10.179421 112.4375 10.529009 112.46045 10.875 112.53125 C 11.220991 112.60205 11.557063 112.70927 11.875 112.84375 C 12.192937 112.97823 12.498492 113.15272 12.78125 113.34375 C 13.346477 113.72552 13.836984 114.21602 14.21875 114.78125 C 14.409777 115.06401 14.584274 115.36956 14.71875 115.6875 C 14.853226 116.00544 14.96045 116.34151 15.03125 116.6875 C 15.101983 117.03342 15.125 117.38308 15.125 117.75 C 15.125 118.11692 15.101983 118.46658 15.03125 118.8125 C 14.993183 118.99853 14.931951 119.16535 14.875 119.34375 C 14.823283 119.51013 14.78593 119.65359 14.71875 119.8125 C 14.584274 120.13044 14.409777 120.43599 14.21875 120.71875 C 13.550659 121.7079 12.570912 122.45048 11.40625 122.8125 C 11.073489 122.91593 10.701061 122.995 10.34375 123.03125 C 10.165077 123.0494 9.9959607 123.0625 9.8125 123.0625 C 9.6290393 123.0625 9.4599234 123.0494 9.28125 123.03125 C 8.9336117 122.99598 8.5744904 122.91146 8.25 122.8125 C 8.2405237 122.80955 8.2282035 122.8155 8.21875 122.8125 C 8.0523697 122.76078 7.9089106 122.72343 7.75 122.65625 C 6.3283371 122.05494 5.2210238 120.82853 4.75 119.34375 C 4.7472 119.33474 4.7527533 119.32153 4.75 119.3125 C 4.5947073 118.81322 4.5 118.30038 4.5 117.75 C 4.5 117.5767 4.515037 117.3878 4.53125 117.21875 C 4.5323018 117.20838 4.5301388 117.19785 4.53125 117.1875 C 4.6945575 115.57944 5.5713402 114.20337 6.84375 113.34375 C 7.1265077 113.15272 7.4320635 112.97823 7.75 112.84375 C 7.8969912 112.78158 8.0653528 112.73647 8.21875 112.6875 C 8.3971453 112.63055 8.5639705 112.56932 8.75 112.53125 C 9.0959911 112.46045 9.4455785 112.4375 9.8125 112.4375 z M 75.21875 112.4375 C 78.154122 112.4375 80.53125 114.81463 80.53125 117.75 C 80.53125 120.68537 78.154122 123.0625 75.21875 123.0625 C 72.283378 123.0625 69.90625 120.68537 69.90625 117.75 C 69.90625 114.81463 72.283378 112.4375 75.21875 112.4375 z "
       transform="translate(0,-95.559041)"
       id="rect3024" /><rect
       style="fill:#666666;fill-opacity:1;stroke:#787878;stroke-width:0;stroke-miterlimit:4;stroke-opacity:1;stroke-dasharray:none"
       id="rect3026"
       width="46.028458"
       height="35.433071"
       x="7.5597453"
       y="-67.958549" /><g
       id="g6"
       transform="translate(14.505943,-73.206983)"><path
         d="M 1.105,18.712 H 30.894 M 1.105,28.981 h 29.789"
         id="path8"
         inkscape:connector-curvature="0"
         style="fill:none;stroke:#ffffff;stroke-width:0.55369997" /><text
         xml:space="preserve"
         style="font-size:24px;font-style:normal;font-weight:normal;line-height:125%;letter-spacing:0px;word-spacing:0px;fill:#000000;fill-opacity:1;stroke:none;font-family:Sans"
         x="-5.4773788"
         y="27.254238"
         id="text3009"
         sodipodi:linespacing="125%"><tspan
           sodipodi:role="line"
           id="tspan3011"
           x="-5.4773788"
           y="27.254238"
           style="font-size:10px;font-weight:bold;fill:#ffffff;-inkscape-font-specification:Sans Bold">Neo-6M</tspan></text>
</g><g
       id="g3083"
       transform="matrix(0,-1,1,0,32.890435,86.779537)"><path
         transform="translate(-30.720474,-7.28332)"
         d="m 94.5,34.812992 c 0,1.242641 -1.007359,2.25 -2.25,2.25 -1.242641,0 -2.25,-1.007359 -2.25,-2.25 0,-1.242641 1.007359,-2.25 2.25,-2.25 1.242641,0 2.25,1.007359 2.25,2.25 z"
         sodipodi:ry="2.25"
         sodipodi:rx="2.25"
         sodipodi:cy="34.812992"
         sodipodi:cx="92.25"
         id="path3042"
         style="fill:#808000;fill-opacity:1;stroke:#787878;stroke-width:0;stroke-miterlimit:4;stroke-opacity:1;stroke-dasharray:none"
         sodipodi:type="arc" /><path
         transform="translate(-30.720474,-16.257897)"
         d="m 94.5,34.812992 c 0,1.242641 -1.007359,2.25 -2.25,2.25 -1.242641,0 -2.25,-1.007359 -2.25,-2.25 0,-1.242641 1.007359,-2.25 2.25,-2.25 1.242641,0 2.25,1.007359 2.25,2.25 z"
         sodipodi:ry="2.25"
         sodipodi:rx="2.25"
         sodipodi:cy="34.812992"
         sodipodi:cx="92.25"
         id="path3042-5"
         style="fill:#808000;fill-opacity:1;stroke:#787878;stroke-width:0;stroke-miterlimit:4;stroke-opacity:1;stroke-dasharray:none"
         sodipodi:type="arc" /><path
         transform="translate(-30.720474,-25.050269)"
         d="m 94.5,34.812992 c 0,1.242641 -1.007359,2.25 -2.25,2.25 -1.242641,0 -2.25,-1.007359 -2.25,-2.25 0,-1.242641 1.007359,-2.25 2.25,-2.25 1.242641,0 2.25,1.007359 2.25,2.25 z"
         sodipodi:ry="2.25"
         sodipodi:rx="2.25"
         sodipodi:cy="34.812992"
         sodipodi:cx="92.25"
         id="path3042-4"
         style="fill:#808000;fill-opacity:1;stroke:#787878;stroke-width:0;stroke-miterlimit:4;stroke-opacity:1;stroke-dasharray:none"
         sodipodi:type="arc" /><path
         transform="translate(-30.720474,-34.406201)"
         d="m 94.5,34.812992 c 0,1.242641 -1.007359,2.25 -2.25,2.25 -1.242641,0 -2.25,-1.007359 -2.25,-2.25 0,-1.242641 1.007359,-2.25 2.25,-2.25 1.242641,0 2.25,1.007359 2.25,2.25 z"
         sodipodi:ry="2.25"
         sodipodi:rx="2.25"
         sodipodi:cy="34.812992"
         sodipodi:cx="92.25"
         id="path3042-52"
         style="fill:#808000;fill-opacity:1;stroke:#787878;stroke-width:0;stroke-miterlimit:4;stroke-opacity:1;stroke-dasharray:none"
         sodipodi:type="arc" /><path
         transform="translate(-30.720474,-43.084167)"
         d="m 94.5,34.812992 c 0,1.242641 -1.007359,2.25 -2.25,2.25 -1.242641,0 -2.25,-1.007359 -2.25,-2.25 0,-1.242641 1.007359,-2.25 2.25,-2.25 1.242641,0 2.25,1.007359 2.25,2.25 z"
         sodipodi:ry="2.25"
         sodipodi:rx="2.25"
         sodipodi:cy="34.812992"
         sodipodi:cx="92.25"
         id="path3042-6"
         style="fill:#808000;fill-opacity:1;stroke:#787878;stroke-width:0;stroke-miterlimit:4;stroke-opacity:1;stroke-dasharray:none"
         sodipodi:type="arc" /></g></g></svg>