<?xml version="1.0" encoding="UTF-8" standalone="no"?>
<!-- Generator: Adobe Illustrator 14.0.0, SVG Export Plug-In . SVG Version: 6.00 Build 43363)  -->

<svg
   xmlns:dc="http://purl.org/dc/elements/1.1/"
   xmlns:cc="http://creativecommons.org/ns#"
   xmlns:rdf="http://www.w3.org/1999/02/22-rdf-syntax-ns#"
   xmlns:svg="http://www.w3.org/2000/svg"
   xmlns="http://www.w3.org/2000/svg"
   xmlns:sodipodi="http://sodipodi.sourceforge.net/DTD/sodipodi-0.dtd"
   xmlns:inkscape="http://www.inkscape.org/namespaces/inkscape"
   width="85.039368"
   x="0px"
   version="1.1"
   y="0px"
   height="127.55905"
   viewBox="0 0 68.031461 102.04754"
   id="svg_1_"
   xml:space="preserve"
   inkscape:version="0.48.4 r9939"
   sodipodi:docname="svg.breadboard.NEO_6M_GPS_breadboard.svg"><metadata
     id="metadata321"><rdf:RDF><cc:Work
         rdf:about=""><dc:format>image/svg+xml</dc:format><dc:type
           rdf:resource="http://purl.org/dc/dcmitype/StillImage" /></cc:Work></rdf:RDF></metadata><defs
     id="defs319" /><sodipodi:namedview
     pagecolor="#ffffff"
     bordercolor="#666666"
     borderopacity="1"
     objecttolerance="10"
     gridtolerance="10"
     guidetolerance="10"
     inkscape:pageopacity="0"
     inkscape:pageshadow="2"
     inkscape:window-width="1024"
     inkscape:window-height="721"
     id="namedview317"
     showgrid="true"
     inkscape:zoom="2.73"
     inkscape:cx="21.409968"
     inkscape:cy="41.811519"
     inkscape:window-x="0"
     inkscape:window-y="25"
     inkscape:window-maximized="1"
     inkscape:current-layer="svg_1_"
     units="mm"
     inkscape:document-units="mm"
     showguides="true"
     inkscape:guide-bbox="true"><inkscape:grid
       type="xygrid"
       id="grid3766"
       empspacing="5"
       visible="true"
       enabled="true"
       snapvisiblegridlinesonly="true"
       units="mm"
       spacingx="0.1mm"
       spacingy="0.1mm" /></sodipodi:namedview><rect
     style="fill:#ff0000;fill-opacity:1;stroke:#787878;stroke-width:0;stroke-miterlimit:4;stroke-opacity:1;stroke-dasharray:none"
     id="rect3332"
     width="68.031693"
     height="102.04754"
     x="-0.00011616667"
     y="0" /><g
     id="g3558"
     transform="matrix(0,1,-1,0,55.847562,92.650907)"><rect
       id="connector4pin"
       height="2.369"
       y="35.049332"
       x="3.428623"
       width="2.368"
       style="fill:none" /><rect
       id="connector3pin"
       height="2.368"
       y="27.847336"
       x="3.428623"
       width="2.368"
       style="fill:none" /><rect
       id="connector2pin"
       height="2.368"
       y="20.647326"
       x="3.428623"
       width="2.368"
       style="fill:none" /><rect
       id="connector1pin"
       height="2.368"
       y="13.446321"
       x="3.428623"
       width="2.368"
       style="fill:none" /><rect
       id="connector0pin"
       height="2.368"
       y="6.2453322"
       x="3.428623"
       width="2.368"
       style="fill:none" /><rect
       id="connector4terminal"
       height="1.1849999"
       y="35.641312"
       x="4.0206332"
       width="1.184"
       style="fill:none" /><rect
       id="connector3terminal"
       height="1.184"
       y="28.439316"
       x="4.0206332"
       width="1.184"
       style="fill:none" /><rect
       id="connector2terminal"
       height="1.184"
       y="21.239336"
       x="4.0206332"
       width="1.184"
       style="fill:none" /><rect
       id="connector1terminal"
       height="1.184"
       y="14.038332"
       x="4.0206332"
       width="1.184"
       style="fill:none" /><rect
       id="connector0terminal"
       height="1.184"
       y="6.8373275"
       x="4.0206332"
       width="1.184"
       style="fill:none" /><rect
       width="2.2969999"
       x="3.4626272"
       y="6.279325"
       height="2.299"
       id="rect63"
       style="fill:#8d8c8c" /><rect
       width="1.182"
       x="4.0216327"
       y="6.8383269"
       height="1.182"
       id="rect65"
       style="fill:#8c8663" /><polygon
       transform="translate(2.7106301,-16.587675)"
       points="2.491,23.426 3.049,22.867 0.752,22.867 1.311,23.426 "
       id="polygon67"
       style="fill:#b8af82" /><polygon
       transform="translate(2.7106301,-16.587675)"
       points="3.049,22.867 3.049,25.166 2.491,24.607 2.491,23.426 "
       id="polygon69"
       style="fill:#80795b" /><polygon
       transform="translate(2.7106301,-16.587675)"
       points="3.049,25.166 0.752,25.166 1.311,24.607 2.491,24.607 "
       id="polygon71"
       style="fill:#5e5b43" /><polygon
       transform="translate(2.7106301,-16.587675)"
       points="1.311,24.607 0.752,25.166 0.752,22.867 1.311,23.426 "
       id="polygon73"
       style="fill:#9a916c" /><rect
       width="2.2969999"
       x="3.4626272"
       y="13.480326"
       height="2.299"
       id="rect75"
       style="fill:#8d8c8c" /><rect
       width="1.182"
       x="4.0216327"
       y="14.037325"
       height="1.184"
       id="rect77"
       style="fill:#8c8663" /><polygon
       transform="translate(2.7106301,-16.587675)"
       points="2.491,30.625 3.049,30.068 0.752,30.068 1.311,30.625 "
       id="polygon79"
       style="fill:#b8af82" /><polygon
       transform="translate(2.7106301,-16.587675)"
       points="3.049,30.068 3.049,32.367 2.491,31.809 2.491,30.625 "
       id="polygon81"
       style="fill:#80795b" /><polygon
       transform="translate(2.7106301,-16.587675)"
       points="3.049,32.367 0.752,32.367 1.311,31.809 2.491,31.809 "
       id="polygon83"
       style="fill:#5e5b43" /><polygon
       transform="translate(2.7106301,-16.587675)"
       points="1.311,31.809 0.752,32.367 0.752,30.068 1.311,30.625 "
       id="polygon85"
       style="fill:#9a916c" /><rect
       width="2.2969999"
       x="3.4626272"
       y="20.680326"
       height="2.299"
       id="rect87"
       style="fill:#8d8c8c" /><rect
       width="1.182"
       x="4.0216327"
       y="21.238325"
       height="1.182"
       id="rect89"
       style="fill:#8c8663" /><polygon
       transform="translate(2.7106301,-16.587675)"
       points="2.491,37.826 3.049,37.268 0.752,37.268 1.311,37.826 "
       id="polygon91"
       style="fill:#b8af82" /><polygon
       transform="translate(2.7106301,-16.587675)"
       points="3.049,37.268 3.049,39.566 2.491,39.008 2.491,37.826 "
       id="polygon93"
       style="fill:#80795b" /><polygon
       transform="translate(2.7106301,-16.587675)"
       points="3.049,39.566 0.752,39.566 1.311,39.008 2.491,39.008 "
       id="polygon95"
       style="fill:#5e5b43" /><polygon
       transform="translate(2.7106301,-16.587675)"
       points="1.311,39.008 0.752,39.566 0.752,37.268 1.311,37.826 "
       id="polygon97"
       style="fill:#9a916c" /><rect
       width="2.2969999"
       x="3.4626272"
       y="27.880323"
       height="2.299"
       id="rect99"
       style="fill:#8d8c8c" /><rect
       width="1.182"
       x="4.0216327"
       y="28.437326"
       height="1.184"
       id="rect101"
       style="fill:#8c8663" /><polygon
       transform="translate(2.7106301,-16.587675)"
       points="2.491,45.025 3.049,44.468 0.752,44.468 1.311,45.025 "
       id="polygon103"
       style="fill:#b8af82" /><polygon
       transform="translate(2.7106301,-16.587675)"
       points="3.049,44.468 3.049,46.768 2.491,46.208 2.491,45.025 "
       id="polygon105"
       style="fill:#80795b" /><polygon
       transform="translate(2.7106301,-16.587675)"
       points="3.049,46.768 0.752,46.768 1.311,46.208 2.491,46.208 "
       id="polygon107"
       style="fill:#5e5b43" /><polygon
       transform="translate(2.7106301,-16.587675)"
       points="1.311,46.208 0.752,46.768 0.752,44.468 1.311,45.025 "
       id="polygon109"
       style="fill:#9a916c" /><rect
       width="2.2969999"
       x="3.4626272"
       y="35.080326"
       height="2.299"
       id="rect111"
       style="fill:#8d8c8c" /><rect
       width="1.182"
       x="4.0216327"
       y="35.639328"
       height="1.183"
       id="rect113"
       style="fill:#8c8663" /><polygon
       transform="translate(2.7106301,-16.587675)"
       points="2.491,52.227 3.049,51.668 0.752,51.668 1.311,52.227 "
       id="polygon115"
       style="fill:#b8af82" /><polygon
       transform="translate(2.7106301,-16.587675)"
       points="3.049,51.668 3.049,53.967 2.491,53.408 2.491,52.227 "
       id="polygon117"
       style="fill:#80795b" /><polygon
       transform="translate(2.7106301,-16.587675)"
       points="3.049,53.967 0.752,53.967 1.311,53.408 2.491,53.408 "
       id="polygon119"
       style="fill:#5e5b43" /><polygon
       transform="translate(2.7106301,-16.587675)"
       points="1.311,53.408 0.752,53.967 0.752,51.668 1.311,52.227 "
       id="polygon121"
       style="fill:#9a916c" /></g><g
     transform="matrix(0.80000234,0,0,0.80000234,-0.3786223,77.04423)"
     id="g3864"><rect
       y="-67.958549"
       x="7.5597453"
       height="35.433071"
       width="46.028458"
       id="rect3026"
       style="fill:#666666;fill-opacity:1;stroke:#787878;stroke-width:0;stroke-miterlimit:4;stroke-opacity:1;stroke-dasharray:none" /><g
       transform="translate(14.505943,-73.206983)"
       id="g6"><path
         style="fill:none;stroke:#ffffff;stroke-width:0.55369997"
         inkscape:connector-curvature="0"
         id="path8"
         d="M 1.105,18.712 H 30.894 M 1.105,28.981 h 29.789" /><text
         sodipodi:linespacing="125%"
         id="text3009"
         y="27.254238"
         x="-5.4773788"
         style="font-size:24px;font-style:normal;font-weight:normal;line-height:125%;letter-spacing:0px;word-spacing:0px;fill:#000000;fill-opacity:1;stroke:none;font-family:Sans"
         xml:space="preserve"><tspan
           style="font-size:10px;font-weight:bold;fill:#ffffff;-inkscape-font-specification:Sans Bold"
           y="27.254238"
           x="-5.4773788"
           id="tspan3011"
           sodipodi:role="line">Neo-6M</tspan></text>
</g></g></svg>