<?xml version="1.0" encoding="UTF-8" standalone="no"?>
<svg
   xmlns:dc="http://purl.org/dc/elements/1.1/"
   xmlns:cc="http://creativecommons.org/ns#"
   xmlns:rdf="http://www.w3.org/1999/02/22-rdf-syntax-ns#"
   xmlns:svg="http://www.w3.org/2000/svg"
   xmlns="http://www.w3.org/2000/svg"
   xmlns:sodipodi="http://sodipodi.sourceforge.net/DTD/sodipodi-0.dtd"
   xmlns:inkscape="http://www.inkscape.org/namespaces/inkscape"
   width="92.125984"
   version="1.2"
   height="127.55905"
   viewBox="0 0 1023.622 1417.3228"
   id="svg2"
   inkscape:version="0.48.4 r9939"
   sodipodi:docname="svg.pcb.NEO_6M_GPS_pcb.svg">
  <metadata
     id="metadata51">
    <rdf:RDF>
      <cc:Work
         rdf:about="">
        <dc:format>image/svg+xml</dc:format>
        <dc:type
           rdf:resource="http://purl.org/dc/dcmitype/StillImage" />
      </cc:Work>
    </rdf:RDF>
  </metadata>
  <defs
     id="defs49" />
  <sodipodi:namedview
     pagecolor="#ffffff"
     bordercolor="#666666"
     borderopacity="1"
     objecttolerance="10"
     gridtolerance="10"
     guidetolerance="10"
     inkscape:pageopacity="0"
     inkscape:pageshadow="2"
     inkscape:window-width="1024"
     inkscape:window-height="721"
     id="namedview47"
     showgrid="true"
     inkscape:zoom="2.74"
     inkscape:cx="29.342779"
     inkscape:cy="57.945574"
     inkscape:window-x="0"
     inkscape:window-y="25"
     inkscape:window-maximized="1"
     inkscape:current-layer="svg2"
     units="mm"
     inkscape:document-units="mm">
    <inkscape:grid
       type="xygrid"
       id="grid3053"
       empspacing="5"
       visible="true"
       enabled="true"
       snapvisiblegridlinesonly="true"
       units="mm"
       spacingx="1.27mm"
       spacingy="1.27mm" />
  </sodipodi:namedview>
  <desc
     id="desc4">Fritzing footprint SVG</desc>
  <g
     transform="matrix(0,1,-1,0,734.00732,1247.0059)"
     id="copper0">
    <rect
       style="fill:none;stroke:#ffbf00;stroke-width:20"
       id="rect20"
       height="48"
       y="37.21463"
       x="62.316883"
       width="48" />
    <circle
       style="fill:none;stroke:#ffbf00;stroke-width:20"
       sodipodi:ry="24"
       sodipodi:rx="24"
       sodipodi:cy="296"
       sodipodi:cx="50"
       d="m 74,296 c 0,13.25483 -10.745166,24 -24,24 -13.254834,0 -24,-10.74517 -24,-24 0,-13.25483 10.745166,-24 24,-24 13.254834,0 24,10.74517 24,24 z"
       id="connector0pin"
       r="24"
       cy="296"
       cx="50"
       transform="translate(36.316883,-234.78532)" />
    <circle
       style="fill:none;stroke:#ffbf00;stroke-width:20"
       sodipodi:ry="24"
       sodipodi:rx="24"
       sodipodi:cy="375"
       sodipodi:cx="50"
       d="m 74,375 c 0,13.25483 -10.745166,24 -24,24 -13.254834,0 -24,-10.74517 -24,-24 0,-13.25483 10.745166,-24 24,-24 13.254834,0 24,10.74517 24,24 z"
       id="connector1pin"
       r="24"
       cy="375"
       cx="50"
       transform="translate(36.316883,-211.6868)" />
    <circle
       style="fill:none;stroke:#ffbf00;stroke-width:20"
       sodipodi:ry="24"
       sodipodi:rx="24"
       sodipodi:cy="454"
       sodipodi:cx="50"
       d="m 74,454 c 0,13.25483 -10.745166,24 -24,24 -13.254834,0 -24,-10.74517 -24,-24 0,-13.25483 10.745166,-24 24,-24 13.254834,0 24,10.74517 24,24 z"
       id="connector2pin"
       r="24"
       cy="454"
       cx="50"
       transform="translate(36.316883,-192.43359)" />
    <circle
       style="fill:none;stroke:#ffbf00;stroke-width:20"
       sodipodi:ry="24"
       sodipodi:rx="24"
       sodipodi:cy="533"
       sodipodi:cx="50"
       d="m 74,533 c 0,13.25483 -10.745166,24 -24,24 -13.254834,0 -24,-10.74517 -24,-24 0,-13.25483 10.745166,-24 24,-24 13.254834,0 24,10.74517 24,24 z"
       id="connector3pin"
       r="24"
       cy="533"
       cx="50"
       transform="translate(36.316883,-170.01206)" />
    <circle
       style="fill:none;stroke:#ffbf00;stroke-width:20"
       sodipodi:ry="24"
       sodipodi:rx="24"
       sodipodi:cy="612"
       sodipodi:cx="50"
       d="m 74,612 c 0,13.25483 -10.745166,24 -24,24 -13.254834,0 -24,-10.74517 -24,-24 0,-13.25483 10.745166,-24 24,-24 13.254834,0 24,10.74517 24,24 z"
       id="connector4pin"
       r="24"
       cy="612"
       cx="50"
       transform="translate(36.316883,-150.08182)" />
  </g>
  <g
     transform="matrix(0.97613957,0,0,1.2890213,0.72790374,-0.83648118)"
     id="silkscreen">
    <line
       style="stroke:#ffffff;stroke-width:10"
       id="line7"
       x2="666"
       y2="4.9999957"
       x1="304"
       y1="4.9999957" />
    <line
       style="stroke:#ffffff;stroke-width:10"
       id="line9"
       x2="1042.1517"
       y2="262"
       x1="743.15161"
       y1="4.9999957" />
    <line
       style="stroke:#ffffff;stroke-width:10"
       id="line11"
       x2="1042.1517"
       y2="1092"
       x1="1042.1517"
       y1="262" />
    <line
       style="stroke:#ffffff;stroke-width:10"
       id="line13"
       x2="4.9999928"
       y2="1095.8319"
       x1="965"
       y1="1095.8319" />
    <line
       style="stroke:#ffffff;stroke-width:10"
       id="line15"
       x2="4.9999928"
       y2="265.83191"
       x1="4.9999928"
       y1="1095.8319" />
    <line
       style="stroke:#ffffff;stroke-width:10"
       id="line17"
       x2="304"
       y2="5"
       x1="5"
       y1="262" />
  </g>
  <g
     id="keepout"
     transform="translate(0,320.32275)" />
  <g
     id="soldermask"
     transform="translate(0,320.32275)" />
  <g
     id="outline"
     transform="translate(0,320.32275)" />
</svg>
