<?xml version="1.0" encoding="UTF-8" standalone="no"?>
<!-- Generator: Adobe Illustrator 14.0.0, SVG Export Plug-In . SVG Version: 6.00 Build 43363)  -->

<svg
   xmlns:dc="http://purl.org/dc/elements/1.1/"
   xmlns:cc="http://creativecommons.org/ns#"
   xmlns:rdf="http://www.w3.org/1999/02/22-rdf-syntax-ns#"
   xmlns:svg="http://www.w3.org/2000/svg"
   xmlns="http://www.w3.org/2000/svg"
   xmlns:sodipodi="http://sodipodi.sourceforge.net/DTD/sodipodi-0.dtd"
   xmlns:inkscape="http://www.inkscape.org/namespaces/inkscape"
   width="0.952806in"
   x="0px"
   version="1.1"
   y="0px"
   height="1.26926in"
   viewBox="0 0 68.602 91.387"
   id="svg_1_"
   xml:space="preserve"
   inkscape:version="0.48.4 r9939"
   sodipodi:docname="svg.breadboard.XBee__877e22b126c5347caae548fa21aeed7c__breadboard__9111b9f2f643e98ba5cab03d8b8a6b2f.svg"><metadata
     id="metadata321"><rdf:RDF><cc:Work
         rdf:about=""><dc:format>image/svg+xml</dc:format><dc:type
           rdf:resource="http://purl.org/dc/dcmitype/StillImage" /></cc:Work></rdf:RDF></metadata><defs
     id="defs319" /><sodipodi:namedview
     pagecolor="#ffffff"
     bordercolor="#666666"
     borderopacity="1"
     objecttolerance="10"
     gridtolerance="10"
     guidetolerance="10"
     inkscape:pageopacity="0"
     inkscape:pageshadow="2"
     inkscape:window-width="1024"
     inkscape:window-height="721"
     id="namedview317"
     showgrid="false"
     inkscape:zoom="2.0659456"
     inkscape:cx="42.87627"
     inkscape:cy="48.647778"
     inkscape:window-x="0"
     inkscape:window-y="25"
     inkscape:window-maximized="1"
     inkscape:current-layer="svg_1_" /><g
     id="g4142"><rect
       id="connector19pin"
       height="2.3670001"
       y="22.834"
       x="65.519997"
       width="2.3670001"
       style="fill:none" /><rect
       id="connector18pin"
       height="2.368"
       y="30.033001"
       x="65.519997"
       width="2.3670001"
       style="fill:none" /><rect
       id="connector17pin"
       height="2.368"
       y="37.234001"
       x="65.519997"
       width="2.3670001"
       style="fill:none" /><rect
       id="connector16pin"
       height="2.368"
       y="44.435001"
       x="65.519997"
       width="2.3670001"
       style="fill:none" /><rect
       id="connector15pin"
       height="2.369"
       y="51.634998"
       x="65.519997"
       width="2.3670001"
       style="fill:none" /><rect
       id="connector14pin"
       height="2.3670001"
       y="58.835999"
       x="65.519997"
       width="2.3670001"
       style="fill:none" /><rect
       id="connector13pin"
       height="2.3670001"
       y="66.037003"
       x="65.519997"
       width="2.3670001"
       style="fill:none" /><rect
       id="connector12pin"
       height="2.3670001"
       y="73.236"
       x="65.519997"
       width="2.3670001"
       style="fill:none" /><rect
       id="connector11pin"
       height="2.3670001"
       y="80.438004"
       x="65.519997"
       width="2.3670001"
       style="fill:none" /><rect
       id="connector10pin"
       height="2.369"
       y="87.635002"
       x="65.519997"
       width="2.3670001"
       style="fill:none" /><rect
       id="connector9pin"
       height="2.3670001"
       y="87.639"
       x="0.71799999"
       width="2.368"
       style="fill:none" /><rect
       id="connector8pin"
       height="2.3670001"
       y="80.439003"
       x="0.71799999"
       width="2.368"
       style="fill:none" /><rect
       id="connector7pin"
       height="2.3670001"
       y="73.237999"
       x="0.71799999"
       width="2.368"
       style="fill:none" /><rect
       id="connector6pin"
       height="2.3670001"
       y="66.037003"
       x="0.71799999"
       width="2.368"
       style="fill:none" /><rect
       id="connector5pin"
       height="2.3670001"
       y="58.838001"
       x="0.71799999"
       width="2.368"
       style="fill:none" /><rect
       id="connector4pin"
       height="2.369"
       y="51.637001"
       x="0.71799999"
       width="2.368"
       style="fill:none" /><rect
       id="connector3pin"
       height="2.368"
       y="44.435001"
       x="0.71799999"
       width="2.368"
       style="fill:none" /><rect
       id="connector2pin"
       height="2.368"
       y="37.235001"
       x="0.71799999"
       width="2.368"
       style="fill:none" /><rect
       id="connector1pin"
       height="2.368"
       y="30.034"
       x="0.71799999"
       width="2.368"
       style="fill:none" /><rect
       id="connector0pin"
       height="2.368"
       y="22.833"
       x="0.71799999"
       width="2.368"
       style="fill:none" /><rect
       id="connector19terminal"
       height="1.184"
       y="23.426001"
       x="66.111"
       width="1.184"
       style="fill:none" /><rect
       id="connector18terminal"
       height="1.184"
       y="30.625"
       x="66.111"
       width="1.184"
       style="fill:none" /><rect
       id="connector17terminal"
       height="1.184"
       y="37.826"
       x="66.111"
       width="1.184"
       style="fill:none" /><rect
       id="connector16terminal"
       height="1.184"
       y="45.027"
       x="66.111"
       width="1.184"
       style="fill:none" /><rect
       id="connector15terminal"
       height="1.1849999"
       y="52.227001"
       x="66.111"
       width="1.184"
       style="fill:none" /><rect
       style="fill:none"
       id="connector14terminal"
       height="1.184"
       y="59.428001"
       x="66.111"
       width="1.184" /><rect
       id="connector13terminal"
       height="1.184"
       y="66.628998"
       x="66.111"
       width="1.184"
       style="fill:none" /><rect
       id="connector12terminal"
       height="1.184"
       y="73.828003"
       x="66.111"
       width="1.184"
       style="fill:none" /><rect
       id="connector11terminal"
       height="1.184"
       y="81.028999"
       x="66.111"
       width="1.184"
       style="fill:none" /><rect
       id="connector10terminal"
       height="1.1849999"
       y="88.226997"
       x="66.111"
       width="1.184"
       style="fill:none" /><rect
       id="connector9terminal"
       height="1.184"
       y="88.230003"
       x="1.3099999"
       width="1.184"
       style="fill:none" /><rect
       id="connector8terminal"
       height="1.184"
       y="81.030998"
       x="1.3099999"
       width="1.184"
       style="fill:none" /><rect
       id="connector7terminal"
       height="1.184"
       y="73.830002"
       x="1.3099999"
       width="1.184"
       style="fill:none" /><rect
       id="connector6terminal"
       height="1.184"
       y="66.628998"
       x="1.3099999"
       width="1.184"
       style="fill:none" /><rect
       id="connector5terminal"
       height="1.184"
       y="59.43"
       x="1.3099999"
       width="1.184"
       style="fill:none" /><rect
       id="connector4terminal"
       height="1.1849999"
       y="52.229"
       x="1.3099999"
       width="1.184"
       style="fill:none" /><rect
       id="connector3terminal"
       height="1.184"
       y="45.027"
       x="1.3099999"
       width="1.184"
       style="fill:none" /><rect
       id="connector2terminal"
       height="1.184"
       y="37.827"
       x="1.3099999"
       width="1.184"
       style="fill:none" /><rect
       id="connector1terminal"
       height="1.184"
       y="30.625999"
       x="1.3099999"
       width="1.184"
       style="fill:none" /><rect
       id="connector0terminal"
       height="1.184"
       y="23.424999"
       x="1.3099999"
       width="1.184"
       style="fill:none" /><g
       id="g45"><path
         d="M 45.123,0 68.602,20.33 V 91.387 H 0 V 20.33 L 23.613,0 h 21.51 z"
         id="path47"
         inkscape:connector-curvature="0"
         style="fill:#008000" /><path
         d="M 6.943,55.928 H 60.748 M 6.943,74.475 h 53.804"
         id="path49"
         inkscape:connector-curvature="0"
         style="fill:none;stroke:#ffffff" /></g><g
       id="g59"><g
         id="g61"><rect
           width="2.2969999"
           x="0.75199997"
           y="22.867001"
           height="2.299"
           id="rect63"
           style="fill:#8d8c8c" /><rect
           width="1.182"
           x="1.311"
           y="23.426001"
           height="1.182"
           id="rect65"
           style="fill:#8c8663" /><polygon
           points="2.491,23.426 3.049,22.867 0.752,22.867 1.311,23.426 "
           id="polygon67"
           style="fill:#b8af82" /><polygon
           points="3.049,22.867 3.049,25.166 2.491,24.607 2.491,23.426 "
           id="polygon69"
           style="fill:#80795b" /><polygon
           points="3.049,25.166 0.752,25.166 1.311,24.607 2.491,24.607 "
           id="polygon71"
           style="fill:#5e5b43" /><polygon
           points="1.311,24.607 0.752,25.166 0.752,22.867 1.311,23.426 "
           id="polygon73"
           style="fill:#9a916c" /><rect
           width="2.2969999"
           x="0.75199997"
           y="30.068001"
           height="2.299"
           id="rect75"
           style="fill:#8d8c8c" /><rect
           width="1.182"
           x="1.311"
           y="30.625"
           height="1.184"
           id="rect77"
           style="fill:#8c8663" /><polygon
           points="2.491,30.625 3.049,30.068 0.752,30.068 1.311,30.625 "
           id="polygon79"
           style="fill:#b8af82" /><polygon
           points="3.049,30.068 3.049,32.367 2.491,31.809 2.491,30.625 "
           id="polygon81"
           style="fill:#80795b" /><polygon
           points="3.049,32.367 0.752,32.367 1.311,31.809 2.491,31.809 "
           id="polygon83"
           style="fill:#5e5b43" /><polygon
           points="1.311,31.809 0.752,32.367 0.752,30.068 1.311,30.625 "
           id="polygon85"
           style="fill:#9a916c" /><rect
           width="2.2969999"
           x="0.75199997"
           y="37.268002"
           height="2.299"
           id="rect87"
           style="fill:#8d8c8c" /><rect
           width="1.182"
           x="1.311"
           y="37.826"
           height="1.182"
           id="rect89"
           style="fill:#8c8663" /><polygon
           points="2.491,37.826 3.049,37.268 0.752,37.268 1.311,37.826 "
           id="polygon91"
           style="fill:#b8af82" /><polygon
           points="3.049,37.268 3.049,39.566 2.491,39.008 2.491,37.826 "
           id="polygon93"
           style="fill:#80795b" /><polygon
           points="3.049,39.566 0.752,39.566 1.311,39.008 2.491,39.008 "
           id="polygon95"
           style="fill:#5e5b43" /><polygon
           points="1.311,39.008 0.752,39.566 0.752,37.268 1.311,37.826 "
           id="polygon97"
           style="fill:#9a916c" /><rect
           width="2.2969999"
           x="0.75199997"
           y="44.467999"
           height="2.299"
           id="rect99"
           style="fill:#8d8c8c" /><rect
           width="1.182"
           x="1.311"
           y="45.025002"
           height="1.184"
           id="rect101"
           style="fill:#8c8663" /><polygon
           points="2.491,45.025 3.049,44.468 0.752,44.468 1.311,45.025 "
           id="polygon103"
           style="fill:#b8af82" /><polygon
           points="3.049,44.468 3.049,46.768 2.491,46.208 2.491,45.025 "
           id="polygon105"
           style="fill:#80795b" /><polygon
           points="3.049,46.768 0.752,46.768 1.311,46.208 2.491,46.208 "
           id="polygon107"
           style="fill:#5e5b43" /><polygon
           points="1.311,46.208 0.752,46.768 0.752,44.468 1.311,45.025 "
           id="polygon109"
           style="fill:#9a916c" /><rect
           width="2.2969999"
           x="0.75199997"
           y="51.667999"
           height="2.299"
           id="rect111"
           style="fill:#8d8c8c" /><rect
           width="1.182"
           x="1.311"
           y="52.227001"
           height="1.183"
           id="rect113"
           style="fill:#8c8663" /><polygon
           points="2.491,52.227 3.049,51.668 0.752,51.668 1.311,52.227 "
           id="polygon115"
           style="fill:#b8af82" /><polygon
           points="3.049,51.668 3.049,53.967 2.491,53.408 2.491,52.227 "
           id="polygon117"
           style="fill:#80795b" /><polygon
           points="3.049,53.967 0.752,53.967 1.311,53.408 2.491,53.408 "
           id="polygon119"
           style="fill:#5e5b43" /><polygon
           points="1.311,53.408 0.752,53.967 0.752,51.668 1.311,52.227 "
           id="polygon121"
           style="fill:#9a916c" /><rect
           width="2.2969999"
           x="0.75199997"
           y="58.868999"
           height="2.299"
           id="rect123"
           style="fill:#8d8c8c" /><rect
           width="1.182"
           x="1.311"
           y="59.425999"
           height="1.184"
           id="rect125"
           style="fill:#8c8663" /><polygon
           points="2.491,59.426 3.049,58.869 0.752,58.869 1.311,59.426 "
           id="polygon127"
           style="fill:#b8af82" /><polygon
           points="3.049,58.869 3.049,61.168 2.491,60.609 2.491,59.426 "
           id="polygon129"
           style="fill:#80795b" /><polygon
           points="3.049,61.168 0.752,61.168 1.311,60.609 2.491,60.609 "
           id="polygon131"
           style="fill:#5e5b43" /><polygon
           points="1.311,60.609 0.752,61.168 0.752,58.869 1.311,59.426 "
           id="polygon133"
           style="fill:#9a916c" /><rect
           width="2.2969999"
           x="0.75199997"
           y="66.068001"
           height="2.299"
           id="rect135"
           style="fill:#8d8c8c" /><rect
           width="1.182"
           x="1.311"
           y="66.626999"
           height="1.182"
           id="rect137"
           style="fill:#8c8663" /><polygon
           points="2.491,66.627 3.049,66.068 0.752,66.068 1.311,66.627 "
           id="polygon139"
           style="fill:#b8af82" /><polygon
           points="3.049,66.068 3.049,68.367 2.491,67.809 2.491,66.627 "
           id="polygon141"
           style="fill:#80795b" /><polygon
           points="3.049,68.367 0.752,68.367 1.311,67.809 2.491,67.809 "
           id="polygon143"
           style="fill:#5e5b43" /><polygon
           points="1.311,67.809 0.752,68.367 0.752,66.068 1.311,66.627 "
           id="polygon145"
           style="fill:#9a916c" /><rect
           width="2.2969999"
           x="0.75199997"
           y="73.269997"
           height="2.299"
           id="rect147"
           style="fill:#8d8c8c" /><rect
           width="1.182"
           x="1.311"
           y="73.825996"
           height="1.184"
           id="rect149"
           style="fill:#8c8663" /><polygon
           points="2.491,73.826 3.049,73.27 0.752,73.27 1.311,73.826 "
           id="polygon151"
           style="fill:#b8af82" /><polygon
           points="3.049,73.27 3.049,75.568 2.491,75.01 2.491,73.826 "
           id="polygon153"
           style="fill:#80795b" /><polygon
           points="3.049,75.568 0.752,75.568 1.311,75.01 2.491,75.01 "
           id="polygon155"
           style="fill:#5e5b43" /><polygon
           points="1.311,75.01 0.752,75.568 0.752,73.27 1.311,73.826 "
           id="polygon157"
           style="fill:#9a916c" /><rect
           width="2.2969999"
           x="0.75199997"
           y="80.469002"
           height="2.299"
           id="rect159"
           style="fill:#8d8c8c" /><rect
           width="1.182"
           x="1.311"
           y="81.027"
           height="1.182"
           id="rect161"
           style="fill:#8c8663" /><polygon
           points="2.491,81.027 3.049,80.469 0.752,80.469 1.311,81.027 "
           id="polygon163"
           style="fill:#b8af82" /><polygon
           points="3.049,80.469 3.049,82.768 2.491,82.209 2.491,81.027 "
           id="polygon165"
           style="fill:#80795b" /><polygon
           points="3.049,82.768 0.752,82.768 1.311,82.209 2.491,82.209 "
           id="polygon167"
           style="fill:#5e5b43" /><polygon
           points="1.311,82.209 0.752,82.768 0.752,80.469 1.311,81.027 "
           id="polygon169"
           style="fill:#9a916c" /><rect
           width="2.2969999"
           x="0.75199997"
           y="87.669998"
           height="2.299"
           id="rect171"
           style="fill:#8d8c8c" /><rect
           width="1.182"
           x="1.311"
           y="88.226997"
           height="1.1849999"
           id="rect173"
           style="fill:#8c8663" /><polygon
           points="2.491,88.227 3.049,87.67 0.752,87.67 1.311,88.227 "
           id="polygon175"
           style="fill:#b8af82" /><polygon
           points="3.049,87.67 3.049,89.969 2.491,89.41 2.491,88.227 "
           id="polygon177"
           style="fill:#80795b" /><polygon
           points="3.049,89.969 0.752,89.969 1.311,89.41 2.491,89.41 "
           id="polygon179"
           style="fill:#5e5b43" /><polygon
           points="1.311,89.41 0.752,89.969 0.752,87.67 1.311,88.227 "
           id="polygon181"
           style="fill:#9a916c" /></g><g
         id="g183"><rect
           width="2.2969999"
           x="65.553001"
           y="22.867001"
           height="2.299"
           id="rect185"
           style="fill:#8d8c8c" /><rect
           width="1.182"
           x="66.111"
           y="23.426001"
           height="1.182"
           id="rect187"
           style="fill:#8c8663" /><polygon
           points="67.291,23.426 67.85,22.867 65.553,22.867 66.111,23.426 "
           id="polygon189"
           style="fill:#b8af82" /><polygon
           points="67.85,22.867 67.85,25.166 67.291,24.607 67.291,23.426 "
           id="polygon191"
           style="fill:#80795b" /><polygon
           points="67.85,25.166 65.553,25.166 66.111,24.607 67.291,24.607 "
           id="polygon193"
           style="fill:#5e5b43" /><polygon
           points="66.111,24.607 65.553,25.166 65.553,22.867 66.111,23.426 "
           id="polygon195"
           style="fill:#9a916c" /><rect
           width="2.2969999"
           x="65.553001"
           y="30.068001"
           height="2.299"
           id="rect197"
           style="fill:#8d8c8c" /><rect
           width="1.182"
           x="66.111"
           y="30.625"
           height="1.184"
           id="rect199"
           style="fill:#8c8663" /><polygon
           points="67.291,30.625 67.85,30.068 65.553,30.068 66.111,30.625 "
           id="polygon201"
           style="fill:#b8af82" /><polygon
           points="67.85,30.068 67.85,32.367 67.291,31.809 67.291,30.625 "
           id="polygon203"
           style="fill:#80795b" /><polygon
           points="67.85,32.367 65.553,32.367 66.111,31.809 67.291,31.809 "
           id="polygon205"
           style="fill:#5e5b43" /><polygon
           points="66.111,31.809 65.553,32.367 65.553,30.068 66.111,30.625 "
           id="polygon207"
           style="fill:#9a916c" /><rect
           width="2.2969999"
           x="65.553001"
           y="37.268002"
           height="2.299"
           id="rect209"
           style="fill:#8d8c8c" /><rect
           width="1.182"
           x="66.111"
           y="37.826"
           height="1.182"
           id="rect211"
           style="fill:#8c8663" /><polygon
           points="67.291,37.826 67.85,37.268 65.553,37.268 66.111,37.826 "
           id="polygon213"
           style="fill:#b8af82" /><polygon
           points="67.85,37.268 67.85,39.566 67.291,39.008 67.291,37.826 "
           id="polygon215"
           style="fill:#80795b" /><polygon
           points="67.85,39.566 65.553,39.566 66.111,39.008 67.291,39.008 "
           id="polygon217"
           style="fill:#5e5b43" /><polygon
           points="66.111,39.008 65.553,39.566 65.553,37.268 66.111,37.826 "
           id="polygon219"
           style="fill:#9a916c" /><rect
           width="2.2969999"
           x="65.553001"
           y="44.467999"
           height="2.299"
           id="rect221"
           style="fill:#8d8c8c" /><rect
           width="1.182"
           x="66.111"
           y="45.025002"
           height="1.184"
           id="rect223"
           style="fill:#8c8663" /><polygon
           points="67.291,45.025 67.85,44.468 65.553,44.468 66.111,45.025 "
           id="polygon225"
           style="fill:#b8af82" /><polygon
           points="67.85,44.468 67.85,46.768 67.291,46.208 67.291,45.025 "
           id="polygon227"
           style="fill:#80795b" /><polygon
           points="67.85,46.768 65.553,46.768 66.111,46.208 67.291,46.208 "
           id="polygon229"
           style="fill:#5e5b43" /><polygon
           points="66.111,46.208 65.553,46.768 65.553,44.468 66.111,45.025 "
           id="polygon231"
           style="fill:#9a916c" /><rect
           width="2.2969999"
           x="65.553001"
           y="51.667999"
           height="2.299"
           id="rect233"
           style="fill:#8d8c8c" /><rect
           width="1.182"
           x="66.111"
           y="52.227001"
           height="1.183"
           id="rect235"
           style="fill:#8c8663" /><polygon
           points="67.291,52.227 67.85,51.668 65.553,51.668 66.111,52.227 "
           id="polygon237"
           style="fill:#b8af82" /><polygon
           points="67.85,51.668 67.85,53.967 67.291,53.408 67.291,52.227 "
           id="polygon239"
           style="fill:#80795b" /><polygon
           points="67.85,53.967 65.553,53.967 66.111,53.408 67.291,53.408 "
           id="polygon241"
           style="fill:#5e5b43" /><polygon
           points="66.111,53.408 65.553,53.967 65.553,51.668 66.111,52.227 "
           id="polygon243"
           style="fill:#9a916c" /><rect
           width="2.2969999"
           x="65.553001"
           y="58.868999"
           height="2.299"
           id="rect245"
           style="fill:#8d8c8c" /><rect
           width="1.182"
           x="66.111"
           y="59.425999"
           height="1.184"
           id="rect247"
           style="fill:#8c8663" /><polygon
           points="67.291,59.426 67.85,58.869 65.553,58.869 66.111,59.426 "
           id="polygon249"
           style="fill:#b8af82" /><polygon
           points="67.85,58.869 67.85,61.168 67.291,60.609 67.291,59.426 "
           id="polygon251"
           style="fill:#80795b" /><polygon
           points="67.85,61.168 65.553,61.168 66.111,60.609 67.291,60.609 "
           id="polygon253"
           style="fill:#5e5b43" /><polygon
           points="66.111,60.609 65.553,61.168 65.553,58.869 66.111,59.426 "
           id="polygon255"
           style="fill:#9a916c" /><rect
           width="2.2969999"
           x="65.553001"
           y="66.068001"
           height="2.299"
           id="rect257"
           style="fill:#8d8c8c" /><rect
           width="1.182"
           x="66.111"
           y="66.626999"
           height="1.182"
           id="rect259"
           style="fill:#8c8663" /><polygon
           points="67.291,66.627 67.85,66.068 65.553,66.068 66.111,66.627 "
           id="polygon261"
           style="fill:#b8af82" /><polygon
           points="67.85,66.068 67.85,68.367 67.291,67.809 67.291,66.627 "
           id="polygon263"
           style="fill:#80795b" /><polygon
           points="67.85,68.367 65.553,68.367 66.111,67.809 67.291,67.809 "
           id="polygon265"
           style="fill:#5e5b43" /><polygon
           points="66.111,67.809 65.553,68.367 65.553,66.068 66.111,66.627 "
           id="polygon267"
           style="fill:#9a916c" /><rect
           width="2.2969999"
           x="65.553001"
           y="73.269997"
           height="2.299"
           id="rect269"
           style="fill:#8d8c8c" /><rect
           width="1.182"
           x="66.111"
           y="73.825996"
           height="1.184"
           id="rect271"
           style="fill:#8c8663" /><polygon
           points="67.291,73.826 67.85,73.27 65.553,73.27 66.111,73.826 "
           id="polygon273"
           style="fill:#b8af82" /><polygon
           points="67.85,73.27 67.85,75.568 67.291,75.01 67.291,73.826 "
           id="polygon275"
           style="fill:#80795b" /><polygon
           points="67.85,75.568 65.553,75.568 66.111,75.01 67.291,75.01 "
           id="polygon277"
           style="fill:#5e5b43" /><polygon
           points="66.111,75.01 65.553,75.568 65.553,73.27 66.111,73.826 "
           id="polygon279"
           style="fill:#9a916c" /><rect
           width="2.2969999"
           x="65.553001"
           y="80.469002"
           height="2.299"
           id="rect281"
           style="fill:#8d8c8c" /><rect
           width="1.182"
           x="66.111"
           y="81.027"
           height="1.182"
           id="rect283"
           style="fill:#8c8663" /><polygon
           points="67.291,81.027 67.85,80.469 65.553,80.469 66.111,81.027 "
           id="polygon285"
           style="fill:#b8af82" /><polygon
           points="67.85,80.469 67.85,82.768 67.291,82.209 67.291,81.027 "
           id="polygon287"
           style="fill:#80795b" /><polygon
           points="67.85,82.768 65.553,82.768 66.111,82.209 67.291,82.209 "
           id="polygon289"
           style="fill:#5e5b43" /><polygon
           points="66.111,82.209 65.553,82.768 65.553,80.469 66.111,81.027 "
           id="polygon291"
           style="fill:#9a916c" /><rect
           width="2.2969999"
           x="65.553001"
           y="87.669998"
           height="2.299"
           id="rect293"
           style="fill:#8d8c8c" /><rect
           width="1.182"
           x="66.111"
           y="88.226997"
           height="1.1849999"
           id="rect295"
           style="fill:#8c8663" /><polygon
           points="67.291,88.227 67.85,87.67 65.553,87.67 66.111,88.227 "
           id="polygon297"
           style="fill:#b8af82" /><polygon
           points="67.85,87.67 67.85,89.969 67.291,89.41 67.291,88.227 "
           id="polygon299"
           style="fill:#80795b" /><polygon
           points="67.85,89.969 65.553,89.969 66.111,89.41 67.291,89.41 "
           id="polygon301"
           style="fill:#5e5b43" /><polygon
           points="66.111,89.41 65.553,89.969 65.553,87.67 66.111,88.227 "
           id="polygon303"
           style="fill:#9a916c" /></g></g><rect
       width="21.198"
       x="23.702"
       y="1.4119999"
       height="21.197001"
       id="rect305"
       style="fill:none;stroke:#ffffff;stroke-width:0.5" /><circle
       cx="61.216999"
       cy="27.315001"
       r="2.1010001"
       id="circle307"
       sodipodi:cx="61.216999"
       sodipodi:cy="27.315001"
       sodipodi:rx="2.1010001"
       sodipodi:ry="2.1010001"
       style="fill:#00ff00" /><circle
       cx="48.397999"
       cy="20.114"
       r="2.1010001"
       id="circle309"
       sodipodi:cx="48.397999"
       sodipodi:cy="20.114"
       sodipodi:rx="2.1010001"
       sodipodi:ry="2.1010001"
       style="fill:#00ff00" /><circle
       cx="49.058998"
       cy="15.742"
       r="1.439"
       id="circle311"
       sodipodi:cx="49.058998"
       sodipodi:cy="15.742"
       sodipodi:rx="1.439"
       sodipodi:ry="1.439"
       style="fill:#00ff00" /><circle
       cx="6.7080002"
       cy="89.410004"
       r="1.439"
       id="circle313"
       sodipodi:cx="6.7080002"
       sodipodi:cy="89.410004"
       sodipodi:rx="1.439"
       sodipodi:ry="1.439"
       style="fill:#00ff00" /><circle
       cx="51.272999"
       cy="29.246"
       r="4.0310001"
       id="circle315"
       sodipodi:cx="51.272999"
       sodipodi:cy="29.246"
       sodipodi:rx="4.0310001"
       sodipodi:ry="4.0310001"
       style="fill:#00ff00" /><text
       sodipodi:linespacing="125%"
       id="text3788"
       y="71.638115"
       x="13.553037"
       style="font-size:32.00009537px;font-style:normal;font-weight:normal;line-height:125%;letter-spacing:0px;word-spacing:0px;fill:#000000;fill-opacity:1;stroke:none;font-family:Sans"
       xml:space="preserve"><tspan
         style="font-size:19.20005798px;font-weight:bold;line-height:125%;fill:#ececec;-inkscape-font-specification:Sans Bold"
         y="71.638115"
         x="13.553037"
         id="tspan3790"
         sodipodi:role="line">Bee</tspan></text>
</g></svg>