<?xml version="1.0" encoding="UTF-8" standalone="no"?>
<!-- Created with Inkscape (http://www.inkscape.org/) -->

<svg
   xmlns:dc="http://purl.org/dc/elements/1.1/"
   xmlns:cc="http://creativecommons.org/ns#"
   xmlns:rdf="http://www.w3.org/1999/02/22-rdf-syntax-ns#"
   xmlns:svg="http://www.w3.org/2000/svg"
   xmlns="http://www.w3.org/2000/svg"
   xmlns:sodipodi="http://sodipodi.sourceforge.net/DTD/sodipodi-0.dtd"
   xmlns:inkscape="http://www.inkscape.org/namespaces/inkscape"
   width="63.779526"
   version="1.2"
   gorn="0"
   height="85.039368"
   viewBox="0 0 51.023621 68.031802"
   id="svg4568"
   inkscape:version="0.48.4 r9939"
   sodipodi:docname="svg.pcb.ESP8266_12f_1_pcb.svg">
  <sodipodi:namedview
     pagecolor="#ffffff"
     bordercolor="#666666"
     borderopacity="1"
     objecttolerance="10"
     gridtolerance="10"
     guidetolerance="10"
     inkscape:pageopacity="0"
     inkscape:pageshadow="2"
     inkscape:window-width="1024"
     inkscape:window-height="721"
     id="namedview3671"
     showgrid="true"
     inkscape:zoom="4.82"
     inkscape:cx="36.706326"
     inkscape:cy="41.343924"
     inkscape:window-x="0"
     inkscape:window-y="25"
     inkscape:window-maximized="1"
     inkscape:current-layer="svg4568"
     units="mm"
     inkscape:document-units="mm">
    <inkscape:grid
       type="xygrid"
       id="grid3007"
       empspacing="5"
       visible="true"
       enabled="true"
       snapvisiblegridlinesonly="true"
       units="mm"
       spacingx="0.5mm"
       spacingy="1mm" />
  </sodipodi:namedview>
  <desc
     id="desc3640">
    <referenceFile
       id="referenceFile3642">svg.pcb.newESP.svg</referenceFile>
  </desc>
  <desc
     id="desc4572">Fritzing footprint generated by brd2svg</desc>
  <metadata
     id="metadata4718">
    <rdf:RDF>
      <cc:Work
         rdf:about="">
        <dc:format>image/svg+xml</dc:format>
        <dc:type
           rdf:resource="http://purl.org/dc/dcmitype/StillImage" />
        <dc:title />
      </cc:Work>
    </rdf:RDF>
  </metadata>
  <defs
     id="defs4570" />
  <g
     gorn="0.4"
     id="silkscreen"
     transform="translate(0,1.8400245e-6)">
    <g
       transform="matrix(0.80000362,0,0,0.80000362,-1.1525e-4,0)"
       id="g3648">
      <g
         id="g3650">
        <path
           gorn="0.4.0.0.0"
           style="fill:none;stroke:#ffffff;stroke-width:0.35433072;stroke-linecap:butt;stroke-linejoin:miter;stroke-miterlimit:4;stroke-opacity:1;stroke-dasharray:none"
           id="path3529"
           d="m 0.35433071,25.866139 0,-22.3228343 C 0.40576958,1.2187913 1.2466678,0.35432831 3.5433071,0.35432831 l 56.6929129,0 c 2.177704,0 3.188977,0.95024779 3.188977,3.18897639 l 0,22.3228343"
           inkscape:connector-curvature="0" />
      </g>
    </g>
    <path
       gorn="0.4.1"
       style="fill:none;stroke:#ffffff;stroke-width:0.28346586;stroke-linecap:butt;stroke-linejoin:miter;stroke-miterlimit:4;stroke-opacity:1;stroke-dasharray:none"
       id="path4299"
       d="m 0.88538376,67.028364 c 0.40298934,0.405345 1.03049964,0.578239 1.94915954,0.578239 l 45.3545357,0 c 0.871085,0 1.508884,-0.190051 1.928911,-0.603975"
       inkscape:connector-curvature="0" />
  </g>
  <g
     id="copper1">
    <path
       gorn="0.5.0"
       id="connector1pin"
       d="m 0.17790825,59.553967 6.37798155,0 0,-3.401615 -6.37798155,0 z M 5.9675814,57.853159 c 0,0.482482 -0.3920018,0.875844 -0.876004,0.875844 -0.4820026,0 -0.8740044,-0.393362 -0.8740044,-0.875844 0,-0.482482 0.3920018,-0.875844 0.8740044,-0.875844 0.4840022,0 0.876004,0.393362 0.876004,0.875844 z"
       inkscape:connector-curvature="0"
       style="fill:#f7bd13;fill-opacity:1;stroke:none" />
    <path
       gorn="0.5.1"
       id="connector15pin"
       d="m 0.17790825,53.88465 6.37798155,0 0,-3.401615 -6.37798155,0 z M 5.9675814,52.183842 c 0,0.482482 -0.3920018,0.875844 -0.876004,0.875844 -0.4820026,0 -0.8740044,-0.393362 -0.8740044,-0.875844 0,-0.482482 0.3920018,-0.875844 0.8740044,-0.875844 0.4840022,0 0.876004,0.393362 0.876004,0.875844 z"
       inkscape:connector-curvature="0"
       style="fill:#f7bd13;fill-opacity:1;stroke:none" />
    <path
       gorn="0.5.2"
       id="connector14pin"
       d="m 0.17790825,48.215333 6.37798155,0 0,-3.401615 -6.37798155,0 z M 5.9675814,46.514525 c 0,0.482482 -0.3920018,0.875844 -0.876004,0.875844 -0.4820026,0 -0.8740044,-0.393362 -0.8740044,-0.875844 0,-0.482482 0.3920018,-0.875844 0.8740044,-0.875844 0.4840022,0 0.876004,0.393362 0.876004,0.875844 z"
       inkscape:connector-curvature="0"
       style="fill:#f7bd13;fill-opacity:1;stroke:none" />
    <path
       gorn="0.5.3"
       id="connector13pin"
       d="m 0.17790825,42.546016 6.37798155,0 0,-3.401615 -6.37798155,0 z M 5.9675814,40.845208 c 0,0.482482 -0.3920018,0.875844 -0.876004,0.875844 -0.4820026,0 -0.8740044,-0.393362 -0.8740044,-0.875844 0,-0.482482 0.3920018,-0.875844 0.8740044,-0.875844 0.4840022,0 0.876004,0.393362 0.876004,0.875844 z"
       inkscape:connector-curvature="0"
       style="fill:#f7bd13;fill-opacity:1;stroke:none" />
    <path
       gorn="0.5.4"
       id="connector12pin"
       d="m 0.17790825,36.876699 6.37798155,0 0,-3.401615 -6.37798155,0 z M 5.9675814,35.175891 c 0,0.482482 -0.3920018,0.875844 -0.876004,0.875844 -0.4820026,0 -0.8740044,-0.393362 -0.8740044,-0.875844 0,-0.482482 0.3920018,-0.875844 0.8740044,-0.875844 0.4840022,0 0.876004,0.393362 0.876004,0.875844 z"
       inkscape:connector-curvature="0"
       style="fill:#f7bd13;fill-opacity:1;stroke:none" />
    <path
       gorn="0.5.5"
       id="connector5pin"
       d="m 0.17790825,31.207382 6.37798155,0 0,-3.401615 -6.37798155,0 z M 5.9675814,29.506574 c 0,0.482482 -0.3920018,0.875844 -0.876004,0.875844 -0.4820026,0 -0.8740044,-0.393362 -0.8740044,-0.875844 0,-0.482482 0.3920018,-0.875844 0.8740044,-0.875844 0.4840022,0 0.876004,0.393362 0.876004,0.875844 z"
       inkscape:connector-curvature="0"
       style="fill:#f7bd13;fill-opacity:1;stroke:none" />
    <path
       gorn="0.5.6"
       id="connector11pin"
       d="m 0.17790825,25.538065 6.37798155,0 0,-3.401615 -6.37798155,0 z M 5.9675814,23.837257 c 0,0.482482 -0.3920018,0.875844 -0.876004,0.875844 -0.4820026,0 -0.8740044,-0.393362 -0.8740044,-0.875844 0,-0.482482 0.3920018,-0.875844 0.8740044,-0.875844 0.4840022,0 0.876004,0.393362 0.876004,0.875844 z"
       inkscape:connector-curvature="0"
       style="fill:#f7bd13;fill-opacity:1;stroke:none" />
    <path
       gorn="0.5.7"
       id="connector16pin"
       d="m 0.17790825,19.868748 6.37798155,0 0,-3.401615 -6.37798155,0 z M 5.9675814,18.16794 c 0,0.482482 -0.3920018,0.875844 -0.876004,0.875844 -0.4820026,0 -0.8740044,-0.393362 -0.8740044,-0.875844 0,-0.482482 0.3920018,-0.875844 0.8740044,-0.875844 0.4840022,0 0.876004,0.393362 0.876004,0.875844 z"
       inkscape:connector-curvature="0"
       style="fill:#f7bd13;fill-opacity:1;stroke:none" />
    <path
       gorn="0.5.8"
       id="connector7pin"
       d="m 51.189713,19.868748 -6.377981,0 0,-3.401615 6.377981,0 z M 45.40004,18.16794 c 0,0.482482 0.392002,0.875844 0.876004,0.875844 0.482003,0 0.874004,-0.393362 0.874004,-0.875844 0,-0.482482 -0.392001,-0.875844 -0.874004,-0.875844 -0.484002,0 -0.876004,0.393362 -0.876004,0.875844 z"
       inkscape:connector-curvature="0"
       style="fill:#f7bd13;fill-opacity:1;stroke:none" />
    <path
       gorn="0.5.9"
       id="connector0pin"
       d="m 51.189713,25.538065 -6.377981,0 0,-3.401615 6.377981,0 z M 45.40004,23.837257 c 0,0.482482 0.392002,0.875844 0.876004,0.875844 0.482003,0 0.874004,-0.393362 0.874004,-0.875844 0,-0.482482 -0.392001,-0.875844 -0.874004,-0.875844 -0.484002,0 -0.876004,0.393362 -0.876004,0.875844 z"
       inkscape:connector-curvature="0"
       style="fill:#f7bd13;fill-opacity:1;stroke:none" />
    <path
       gorn="0.5.10"
       id="connector10pin"
       d="m 51.189713,31.207382 -6.377981,0 0,-3.401615 6.377981,0 z M 45.40004,29.506574 c 0,0.482482 0.392002,0.875844 0.876004,0.875844 0.482003,0 0.874004,-0.393362 0.874004,-0.875844 0,-0.482482 -0.392001,-0.875844 -0.874004,-0.875844 -0.484002,0 -0.876004,0.393362 -0.876004,0.875844 z"
       inkscape:connector-curvature="0"
       style="fill:#f7bd13;fill-opacity:1;stroke:none" />
    <path
       gorn="0.5.11"
       id="connector9pin"
       d="m 51.189713,36.876699 -6.377981,0 0,-3.401615 6.377981,0 z M 45.40004,35.175891 c 0,0.482482 0.392002,0.875844 0.876004,0.875844 0.482003,0 0.874004,-0.393362 0.874004,-0.875844 0,-0.482482 -0.392001,-0.875844 -0.874004,-0.875844 -0.484002,0 -0.876004,0.393362 -0.876004,0.875844 z"
       inkscape:connector-curvature="0"
       style="fill:#f7bd13;fill-opacity:1;stroke:none" />
    <path
       gorn="0.5.12"
       id="connector2pin"
       d="m 51.189713,42.546016 -6.377981,0 0,-3.401615 6.377981,0 z M 45.40004,40.845208 c 0,0.482482 0.392002,0.875844 0.876004,0.875844 0.482003,0 0.874004,-0.393362 0.874004,-0.875844 0,-0.482482 -0.392001,-0.875844 -0.874004,-0.875844 -0.484002,0 -0.876004,0.393362 -0.876004,0.875844 z"
       inkscape:connector-curvature="0"
       style="fill:#f7bd13;fill-opacity:1;stroke:none" />
    <path
       gorn="0.5.13"
       id="connector4pin"
       d="m 51.189713,48.215333 -6.377981,0 0,-3.401615 6.377981,0 z M 45.40004,46.514525 c 0,0.482482 0.392002,0.875844 0.876004,0.875844 0.482003,0 0.874004,-0.393362 0.874004,-0.875844 0,-0.482482 -0.392001,-0.875844 -0.874004,-0.875844 -0.484002,0 -0.876004,0.393362 -0.876004,0.875844 z"
       inkscape:connector-curvature="0"
       style="fill:#f7bd13;fill-opacity:1;stroke:none" />
    <path
       gorn="0.5.14"
       id="connector8pin"
       d="m 51.189713,53.88465 -6.377981,0 0,-3.401615 6.377981,0 z M 45.40004,52.183842 c 0,0.482482 0.392002,0.875844 0.876004,0.875844 0.482003,0 0.874004,-0.393362 0.874004,-0.875844 0,-0.482482 -0.392001,-0.875844 -0.874004,-0.875844 -0.484002,0 -0.876004,0.393362 -0.876004,0.875844 z"
       inkscape:connector-curvature="0"
       style="fill:#f7bd13;fill-opacity:1;stroke:none" />
    <path
       gorn="0.5.15"
       id="connector6pin"
       d="m 51.189713,59.553967 -6.377981,0 0,-3.401615 6.377981,0 z M 45.40004,57.853159 c 0,0.482482 0.392002,0.875844 0.876004,0.875844 0.482003,0 0.874004,-0.393362 0.874004,-0.875844 0,-0.482482 -0.392001,-0.875844 -0.874004,-0.875844 -0.484002,0 -0.876004,0.393362 -0.876004,0.875844 z"
       inkscape:connector-curvature="0"
       style="fill:#f7bd13;fill-opacity:1;stroke:none" />
    <path
       style="fill:#f7bd13;fill-opacity:1;stroke:none"
       inkscape:connector-curvature="0"
       gorn="0.5.8"
       id="connector17pin"
       d="m 9.3711036,68.031802 0,-6.377981 3.4016144,0 0,6.377981 z m 1.7008084,-5.789673 c -0.482482,0 -0.875844,0.392002 -0.875844,0.876004 0,0.482003 0.393362,0.874004 0.875844,0.874004 0.482481,0 0.875843,-0.392001 0.875843,-0.874004 0,-0.484002 -0.393362,-0.876004 -0.875843,-0.876004 z" />
    <path
       style="fill:#f7bd13;fill-opacity:1;stroke:none"
       inkscape:connector-curvature="0"
       gorn="0.5.8"
       id="connector18pin"
       d="m 15.180258,68.031802 0,-6.377981 3.401615,0 0,6.377981 z m 1.700808,-5.789673 c -0.482482,0 -0.875844,0.392002 -0.875844,0.876004 0,0.482003 0.393362,0.874004 0.875844,0.874004 0.482482,0 0.875844,-0.392001 0.875844,-0.874004 0,-0.484002 -0.393362,-0.876004 -0.875844,-0.876004 z" />
    <path
       style="fill:#f7bd13;fill-opacity:1;stroke:none"
       inkscape:connector-curvature="0"
       gorn="0.5.8"
       id="connector19pin"
       d="m 21.14232,68.031802 0,-6.377981 3.401615,0 0,6.377981 z m 1.700808,-5.789673 c -0.482482,0 -0.875844,0.392002 -0.875844,0.876004 0,0.482003 0.393362,0.874004 0.875844,0.874004 0.482482,0 0.875844,-0.392001 0.875844,-0.874004 0,-0.484002 -0.393362,-0.876004 -0.875844,-0.876004 z" />
    <path
       style="fill:#f7bd13;fill-opacity:1;stroke:none"
       inkscape:connector-curvature="0"
       gorn="0.5.8"
       id="connector20pin"
       d="m 26.785499,68.031802 0,-6.377981 3.401615,0 0,6.377981 z m 1.700807,-5.789673 c -0.482482,0 -0.875844,0.392002 -0.875844,0.876004 0,0.482003 0.393362,0.874004 0.875844,0.874004 0.482482,0 0.875845,-0.392001 0.875845,-0.874004 0,-0.484002 -0.393363,-0.876004 -0.875845,-0.876004 z" />
    <path
       style="fill:#f7bd13;fill-opacity:1;stroke:none"
       inkscape:connector-curvature="0"
       gorn="0.5.8"
       id="connector21pin"
       d="m 32.441747,68.031802 0,-6.377981 3.401615,0 0,6.377981 z m 1.700808,-5.789673 c -0.482482,0 -0.875844,0.392002 -0.875844,0.876004 0,0.482003 0.393362,0.874004 0.875844,0.874004 0.482482,0 0.875844,-0.392001 0.875844,-0.874004 0,-0.484002 -0.393362,-0.876004 -0.875844,-0.876004 z" />
    <path
       style="fill:#f7bd13;fill-opacity:1;stroke:none"
       inkscape:connector-curvature="0"
       gorn="0.5.8"
       id="connector22pin"
       d="m 38.250902,68.031802 0,-6.377981 3.401615,0 0,6.377981 z m 1.700807,-5.789673 c -0.482482,0 -0.875844,0.392002 -0.875844,0.876004 0,0.482003 0.393362,0.874004 0.875844,0.874004 0.482482,0 0.875845,-0.392001 0.875845,-0.874004 0,-0.484002 -0.393363,-0.876004 -0.875845,-0.876004 z" />
  </g>
</svg>
