<?xml version="1.0" encoding="UTF-8" standalone="no"?>
<!-- Created with Inkscape (http://www.inkscape.org/) -->

<svg
   xmlns:dc="http://purl.org/dc/elements/1.1/"
   xmlns:cc="http://creativecommons.org/ns#"
   xmlns:rdf="http://www.w3.org/1999/02/22-rdf-syntax-ns#"
   xmlns:svg="http://www.w3.org/2000/svg"
   xmlns="http://www.w3.org/2000/svg"
   xmlns:sodipodi="http://sodipodi.sourceforge.net/DTD/sodipodi-0.dtd"
   xmlns:inkscape="http://www.inkscape.org/namespaces/inkscape"
   version="1.1"
   width="88.582672"
   height="60.237537"
   viewBox="0 0 70.866098 48.19"
   id="Layer_1"
   xml:space="preserve"
   inkscape:version="0.48.4 r9939"
   sodipodi:docname="svg.icon.ESP8266_12f_1_icon.svg"><sodipodi:namedview
     pagecolor="#ffffff"
     bordercolor="#666666"
     borderopacity="1"
     objecttolerance="10"
     gridtolerance="10"
     guidetolerance="10"
     inkscape:pageopacity="0"
     inkscape:pageshadow="2"
     inkscape:window-width="1024"
     inkscape:window-height="721"
     id="namedview4285"
     showgrid="true"
     inkscape:zoom="5.5410688"
     inkscape:cx="42.241798"
     inkscape:cy="30.118769"
     inkscape:window-x="0"
     inkscape:window-y="25"
     inkscape:window-maximized="1"
     inkscape:current-layer="Layer_1"
     showguides="true"
     inkscape:guide-bbox="true"
     units="mm"
     inkscape:document-units="mm"><inkscape:grid
       type="xygrid"
       id="grid3186"
       empspacing="5"
       visible="true"
       enabled="true"
       snapvisiblegridlinesonly="true"
       spacingx="0.5mm"
       spacingy="0.5mm"
       units="mm" /></sodipodi:namedview><desc
     id="desc3"><referenceFile
       id="referenceFile5">ESP8266.svg</referenceFile></desc><metadata
     id="metadata265"><rdf:RDF><cc:Work
         rdf:about=""><dc:format>image/svg+xml</dc:format><dc:type
           rdf:resource="http://purl.org/dc/dcmitype/StillImage" /><dc:title /></cc:Work></rdf:RDF></metadata><defs
     id="defs263" /><rect
     width="62.362"
     height="45.354"
     x="1.419"
     y="1.4179962"
     id="rect7"
     style="fill:#ffffff;stroke:#231f20;stroke-width:1;stroke-miterlimit:10;display:none" /><g
     transform="translate(0,-6.6355694e-6)"
     id="g8"><g
       id="g10"><g
         id="g12"><g
           id="g14"><g
             id="g16"><g
               id="g18"><g
                 id="g11"
                 style="display:none"><g
                   transform="matrix(0.004,-0.1177,0.1177,0.004,-2.3984,49.7529)"
                   id="g21"><g
                     id="g23"><g
                       id="g25"><g
                         id="g27"><g
                           id="g29"><g
                             id="g31"><g
                               id="g13"><g
                                 id="g15"><g
                                   id="g17"><g
                                   id="g19"><image
                                   width="450"
                                   height="588"
                                   id="image21"
                                   style="display:inline;overflow:visible" /></g></g></g></g></g></g></g></g></g></g></g></g></g></g></g></g></g><rect
     width="68.031456"
     height="45.354"
     x="1.4201567"
     y="1.4179962"
     id="rect9"
     style="fill:#000000" /><g
     transform="matrix(0.1301,0,0,0.1301,-3.355,-12.121107)"
     id="g39"><g
       id="g41"><g
         id="g43"><g
           id="g45"><g
             id="g47"><g
               id="g49"><g
                 id="g51"><g
                   id="g53"><g
                     id="g55"><g
                       id="g57"><image
                         width="551"
                         height="558"
                         id="image31"
                         style="opacity:0.2;display:none;overflow:visible" /></g></g></g></g></g></g></g></g></g></g><path
     d="m 45.121025,7.4356934 22.42163,0 c 0.7343,0.0837 1.35462,0.37635 1.59206,1.37095 l 0,2.4765496 c -0.10923,0.9856 -0.6351,1.20199 -1.2825,1.19405 l -9.64085,0 0,1.68052 9.68508,0 c 0.70005,0.0122 1.14456,0.37151 1.1056,1.32672 l 0,2.29966 c -0.0806,1.12332 -0.57426,1.31713 -1.14983,1.32672 l -9.77353,0 0,1.41517 9.72931,0 c 0.72597,0.0419 1.02786,0.30117 1.1056,1.19405 l 0,2.65345 c -0.0313,0.70607 -0.36861,1.15713 -1.14982,1.23827 l -9.55241,0 0,1.72474 9.41973,0 c 0.6963,0.038 1.11791,0.4672 1.10561,1.50362 l 0,9.66087 c -0.0815,0.86645 -0.43889,1.53051 -1.76204,1.48638 l 0,-10.74923 -9.91313,0 c -0.58569,-0.0105 -0.86035,-0.30986 -0.86237,-0.86237 l 0,-3.78116 c 0.0548,-0.41751 0.25099,-0.71934 0.76287,-0.76287 l 9.96148,0 0,-1.66946 -9.68508,0 c -0.62532,0.0893 -0.94046,-0.0902 -0.94035,-0.54291 l 0,-3.39303 c 0.0344,-0.49227 0.0372,-0.99902 1.04509,-1.04509 l 10.0668,0 0,-1.29879 -10.34844,0 c -0.624,-0.0967 -0.67573,-0.38407 -0.68547,-0.68548 l 0,-3.64848 c -0.0196,-0.59539 0.28971,-0.88386 0.89553,-0.89554 l 10.18261,0 0,-1.6694596 -14.74273,0 0,18.7510196 c 0.0129,1.53233 -0.43221,1.36993 -0.81989,1.42009 -0.8883,0.11311 -0.92068,-0.70753 -0.90963,-1.57553 l 0,-18.5513596 -5.90515,0 z"
     id="path4088"
     style="fill:#9a916c;fill-opacity:1;stroke:none"
     inkscape:connector-curvature="0" /><rect
     width="43.5"
     height="34.499001"
     x="6.0631166"
     y="6.6417894"
     id="rect35"
     style="fill:#353033" /><g
     transform="matrix(0,1.3738884,-1.4209906,0,77.14326,-23.062239)"
     id="g62"><g
       id="g64"><g
         id="g66"><g
           id="g68"><g
             id="g70"><g
               id="g72"><g
                 id="g3928"><rect
                   width="2.3514719"
                   height="1.175736"
                   x="44.275764"
                   y="16.324675"
                   id="rect3930"
                   style="fill:#1a1a1a;fill-opacity:1;stroke-width:0;stroke-miterlimit:4;stroke-dasharray:none" /><rect
                   width="0.58786798"
                   height="1.175736"
                   x="44.275764"
                   y="16.324675"
                   id="rect3932"
                   style="fill:#8c8c8c;fill-opacity:1;stroke-width:0;stroke-miterlimit:4;stroke-dasharray:none" /><rect
                   width="0.58786798"
                   height="1.175736"
                   x="46.051922"
                   y="16.324675"
                   id="rect3934"
                   style="fill:#8c8c8c;fill-opacity:1;stroke-width:0;stroke-miterlimit:4;stroke-dasharray:none" /></g></g></g></g></g></g></g><path
     d="m 46.688676,12.962793 c 0,2.761 -2.238,5 -5,5 h -14.167 c -2.761,0 -5,-2.239 -5,-5 l 0,0 c 0,-2.761 2.239,-4.9999996 5,-4.9999996 h 14.167 c 2.762,0 5,2.2389996 5,4.9999996 l 0,0 z"
     id="path37"
     style="fill:#81736c"
     inkscape:connector-curvature="0" /><g
     transform="translate(-11.476325,-0.20420664)"
     id="g79"><g
       id="g81"><g
         id="g83"><g
           id="g85"><g
             id="g87"><g
               id="g89"><circle
                 cx="24.665001"
                 cy="13.167"
                 r="5"
                 id="circle39"
                 style="fill:#81736c"
                 d="m 29.665001,13.167 c 0,2.761424 -2.238576,5 -5,5 -2.761424,0 -5,-2.238576 -5,-5 0,-2.761424 2.238576,-5.0000002 5,-5.0000002 2.761424,0 5,2.2385762 5,5.0000002 z"
                 sodipodi:cx="24.665001"
                 sodipodi:cy="13.167"
                 sodipodi:rx="5"
                 sodipodi:ry="5" /></g></g></g></g></g></g><rect
     width="49.167"
     height="24.096001"
     x="35.768002"
     y="20.499989"
     id="rect41"
     style="fill:none" /><g
     transform="translate(24.291276,22.575593)"
     id="g93"><g
       id="g95"><g
         id="g97"><g
           id="g99"><g
             id="g101"><g
               id="g103"><g
                 id="g105"><g
                   id="g107"><g
                     id="g109"><g
                       id="g111"><text
                         x="0"
                         y="0"
                         id="text53"
                         style="font-size:3px;fill:#e0e0e0;font-family:Droid Sans">ESP8266MOD</text>
<text
                         x="0"
                         y="3.5999999"
                         id="text55"
                         style="font-size:3px;fill:#e0e0e0;font-family:Droid Sans">AI/THINKER</text>
<text
                         x="0"
                         y="7.2010002"
                         id="text57"
                         style="font-size:3px;fill:#e0e0e0;font-family:Droid Sans">ISM 2.4GHz</text>
<text
                         x="0"
                         y="10.8"
                         id="text59"
                         style="font-size:3px;fill:#e0e0e0;font-family:Droid Sans">PA  +25dBm</text>
<text
                         x="0"
                         y="14.4"
                         id="text61"
                         style="font-size:3px;fill:#e0e0e0;font-family:Droid Sans">802.11b/g/n</text>
</g></g></g></g></g></g></g></g></g></g><rect
     width="13.833"
     height="6"
     x="8.3556767"
     y="20.128803"
     id="rect63"
     style="fill:none" /><g
     transform="translate(8.3551759,22.409093)"
     id="g119"><g
       id="g121"><g
         id="g123"><g
           id="g125"><g
             id="g127"><g
               id="g129"><g
                 id="g67"><g
                   id="g69"><g
                     id="g71"><g
                       id="g73"><text
                         x="0"
                         y="0"
                         id="text75"
                         style="font-size:3px;fill:#e0e0e0;font-family:Droid Sans">MODEL</text>
<text
                         x="0"
                         y="3.6010001"
                         id="text77"
                         style="font-size:3px;fill:#e0e0e0;font-family:Droid Sans">VENDOR</text>
</g></g></g></g></g></g></g></g></g></g><rect
     width="1.6670001"
     height="8.7089996"
     x="8.1886768"
     y="28.920795"
     id="rect79"
     style="fill:#e0e0e0" /><rect
     width="4.2340002"
     height="1.6670001"
     x="9.8556767"
     y="27.253803"
     id="rect81"
     style="fill:#e0e0e0" /><rect
     width="4.1669998"
     height="1.474"
     x="9.0226765"
     y="31.941807"
     id="rect83"
     style="fill:#e0e0e0" /><path
     d="m 21.699676,34.960793 c -0.655,0.866 -1.685,1.435 -2.855,1.435 -1.983,0 -3.591,-1.607 -3.591,-3.592 0,-1.983 1.608,-3.591 3.591,-3.591 1.17,0 2.2,0.568 2.855,1.435 h 2.035 c -0.83,-1.879 -2.704,-3.194 -4.89,-3.194 -2.956,0 -5.351,2.396 -5.351,5.352 0,2.955 2.396,5.351 5.351,5.351 2.187,0 4.06,-1.315 4.891,-3.194 h -2.036 z"
     id="path85"
     style="fill:#e0e0e0"
     inkscape:connector-curvature="0" /><path
     d="m 19.990676,33.790793 c -0.284,0.341 -0.707,0.563 -1.185,0.563 -0.855,0 -1.549,-0.693 -1.549,-1.55 0,-0.855 0.694,-1.549 1.549,-1.549 0.479,0 0.901,0.222 1.186,0.563 h 1.904 c -0.42,-1.313 -1.637,-2.271 -3.09,-2.271 -1.799,0 -3.258,1.459 -3.258,3.258 0,1.8 1.459,3.259 3.258,3.259 1.453,0 2.669,-0.958 3.089,-2.271 h -1.904 z"
     id="path87"
     style="fill:#e0e0e0"
     inkscape:connector-curvature="0" /><path
     d="m 11.522676,28.920793 c 0,-0.921 -0.746,-1.667 -1.6670001,-1.667 -0.921,0 -1.667,0.746 -1.667,1.667 0,0.92 0.746,1.666 1.667,1.666 v -1.666 h 1.6670001 z"
     id="path89"
     style="fill:#e0e0e0"
     inkscape:connector-curvature="0" /><path
     d="m 4.085752,46.770993 c 10e-4,-0.483 0.392,-0.874 0.875,-0.874 0.482,0 0.873,0.391 0.874,0.874 h 0.542 v -3.521 h -2.833 v 3.521 h 0.542 z m 0.875,-2.955 c 0.483,0 0.875,0.392 0.875,0.876 0,0.482 -0.392,0.874 -0.875,0.874 -0.483,0 -0.875,-0.392 -0.875,-0.874 0,-0.484 0.392,-0.876 0.875,-0.876 z"
     id="path117"
     style="fill:#808000"
     inkscape:connector-curvature="0" /><path
     d="m 4.085752,46.770993 c 10e-4,-0.483 0.392,-0.874 0.875,-0.874 0.482,0 0.873,0.391 0.874,0.874 h 0.542 v -3.521 h -2.833 v 3.521 h 0.542 z m 0.875,-2.955 c 0.483,0 0.875,0.392 0.875,0.876 0,0.482 -0.392,0.874 -0.875,0.874 -0.483,0 -0.875,-0.392 -0.875,-0.874 0,-0.484 0.392,-0.876 0.875,-0.876 z"
     id="path119"
     style="fill:#808000"
     inkscape:connector-curvature="0" /><path
     d="m 4.085752,46.770993 c 10e-4,-0.483 0.392,-0.874 0.875,-0.874 0.482,0 0.873,0.391 0.874,0.874 h 0.542 v -3.521 h -2.833 v 3.521 h 0.542 z m 0.875,-2.955 c 0.483,0 0.875,0.392 0.875,0.876 0,0.482 -0.392,0.874 -0.875,0.874 -0.483,0 -0.875,-0.392 -0.875,-0.874 0,-0.484 0.392,-0.876 0.875,-0.876 z"
     id="path121"
     style="fill:#808000"
     inkscape:connector-curvature="0" /><path
     d="m 4.085752,46.770993 c 10e-4,-0.483 0.392,-0.874 0.875,-0.874 0.482,0 0.873,0.391 0.874,0.874 h 0.542 v -3.521 h -2.833 v 3.521 h 0.542 z m 0.875,-2.955 c 0.483,0 0.875,0.392 0.875,0.876 0,0.482 -0.392,0.874 -0.875,0.874 -0.483,0 -0.875,-0.392 -0.875,-0.874 0,-0.484 0.392,-0.876 0.875,-0.876 z"
     id="connector6pin"
     style="fill:#808000"
     inkscape:connector-curvature="0" /><path
     d="m 9.7197524,46.770993 c 10e-4,-0.483 0.3919996,-0.874 0.8749996,-0.874 0.482,0 0.873,0.391 0.874,0.874 h 0.542 v -3.521 H 9.1777524 v 3.521 h 0.542 z m 0.8749996,-2.955 c 0.483,0 0.875,0.392 0.875,0.876 0,0.482 -0.392,0.874 -0.875,0.874 -0.483,0 -0.8749996,-0.392 -0.8749996,-0.874 0,-0.484 0.3919996,-0.876 0.8749996,-0.876 z"
     id="path126"
     style="fill:#808000"
     inkscape:connector-curvature="0" /><path
     d="m 9.7197524,46.770993 c 10e-4,-0.483 0.3919996,-0.874 0.8749996,-0.874 0.482,0 0.873,0.391 0.874,0.874 h 0.542 v -3.521 H 9.1777524 v 3.521 h 0.542 z m 0.8749996,-2.955 c 0.483,0 0.875,0.392 0.875,0.876 0,0.482 -0.392,0.874 -0.875,0.874 -0.483,0 -0.8749996,-0.392 -0.8749996,-0.874 0,-0.484 0.3919996,-0.876 0.8749996,-0.876 z"
     id="path128"
     style="fill:#808000"
     inkscape:connector-curvature="0" /><path
     d="m 9.7197524,46.770993 c 10e-4,-0.483 0.3919996,-0.874 0.8749996,-0.874 0.482,0 0.873,0.391 0.874,0.874 h 0.542 v -3.521 H 9.1777524 v 3.521 h 0.542 z m 0.8749996,-2.955 c 0.483,0 0.875,0.392 0.875,0.876 0,0.482 -0.392,0.874 -0.875,0.874 -0.483,0 -0.8749996,-0.392 -0.8749996,-0.874 0,-0.484 0.3919996,-0.876 0.8749996,-0.876 z"
     id="path130"
     style="fill:#808000"
     inkscape:connector-curvature="0" /><path
     d="m 9.7197524,46.770993 c 10e-4,-0.483 0.3919996,-0.874 0.8749996,-0.874 0.482,0 0.873,0.391 0.874,0.874 h 0.542 v -3.521 H 9.1777524 v 3.521 h 0.542 z m 0.8749996,-2.955 c 0.483,0 0.875,0.392 0.875,0.876 0,0.482 -0.392,0.874 -0.875,0.874 -0.483,0 -0.8749996,-0.392 -0.8749996,-0.874 0,-0.484 0.3919996,-0.876 0.8749996,-0.876 z"
     id="connector8pin"
     style="fill:#808000"
     inkscape:connector-curvature="0" /><path
     d="m 15.353752,46.770993 c 10e-4,-0.483 0.392,-0.874 0.875,-0.874 0.482,0 0.873,0.391 0.874,0.874 h 0.542 v -3.521 h -2.833 v 3.521 h 0.542 z m 0.875,-2.955 c 0.483,0 0.875,0.392 0.875,0.876 0,0.482 -0.392,0.874 -0.875,0.874 -0.483,0 -0.875,-0.392 -0.875,-0.874 0,-0.484 0.392,-0.876 0.875,-0.876 z"
     id="path135"
     style="fill:#808000"
     inkscape:connector-curvature="0" /><path
     d="m 15.353752,46.770993 c 10e-4,-0.483 0.392,-0.874 0.875,-0.874 0.482,0 0.873,0.391 0.874,0.874 h 0.542 v -3.521 h -2.833 v 3.521 h 0.542 z m 0.875,-2.955 c 0.483,0 0.875,0.392 0.875,0.876 0,0.482 -0.392,0.874 -0.875,0.874 -0.483,0 -0.875,-0.392 -0.875,-0.874 0,-0.484 0.392,-0.876 0.875,-0.876 z"
     id="path137"
     style="fill:#808000"
     inkscape:connector-curvature="0" /><path
     d="m 15.353752,46.770993 c 10e-4,-0.483 0.392,-0.874 0.875,-0.874 0.482,0 0.873,0.391 0.874,0.874 h 0.542 v -3.521 h -2.833 v 3.521 h 0.542 z m 0.875,-2.955 c 0.483,0 0.875,0.392 0.875,0.876 0,0.482 -0.392,0.874 -0.875,0.874 -0.483,0 -0.875,-0.392 -0.875,-0.874 0,-0.484 0.392,-0.876 0.875,-0.876 z"
     id="path139"
     style="fill:#808000"
     inkscape:connector-curvature="0" /><path
     d="m 15.353752,46.770993 c 10e-4,-0.483 0.392,-0.874 0.875,-0.874 0.482,0 0.873,0.391 0.874,0.874 h 0.542 v -3.521 h -2.833 v 3.521 h 0.542 z m 0.875,-2.955 c 0.483,0 0.875,0.392 0.875,0.876 0,0.482 -0.392,0.874 -0.875,0.874 -0.483,0 -0.875,-0.392 -0.875,-0.874 0,-0.484 0.392,-0.876 0.875,-0.876 z"
     id="connector4pin"
     style="fill:#808000"
     inkscape:connector-curvature="0" /><path
     d="m 20.986752,46.770993 c 0.001,-0.483 0.393,-0.874 0.875,-0.874 0.482,0 0.873,0.391 0.874,0.874 h 0.542 v -3.521 h -2.833 v 3.521 h 0.542 z m 0.875,-2.955 c 0.482,0 0.875,0.392 0.875,0.876 0,0.482 -0.393,0.874 -0.875,0.874 -0.483,0 -0.875,-0.392 -0.875,-0.874 0,-0.484 0.392,-0.876 0.875,-0.876 z"
     id="path144"
     style="fill:#808000"
     inkscape:connector-curvature="0" /><path
     d="m 20.986752,46.770993 c 0.001,-0.483 0.393,-0.874 0.875,-0.874 0.482,0 0.873,0.391 0.874,0.874 h 0.542 v -3.521 h -2.833 v 3.521 h 0.542 z m 0.875,-2.955 c 0.482,0 0.875,0.392 0.875,0.876 0,0.482 -0.393,0.874 -0.875,0.874 -0.483,0 -0.875,-0.392 -0.875,-0.874 0,-0.484 0.392,-0.876 0.875,-0.876 z"
     id="path146"
     style="fill:#808000"
     inkscape:connector-curvature="0" /><path
     d="m 20.986752,46.770993 c 0.001,-0.483 0.393,-0.874 0.875,-0.874 0.482,0 0.873,0.391 0.874,0.874 h 0.542 v -3.521 h -2.833 v 3.521 h 0.542 z m 0.875,-2.955 c 0.482,0 0.875,0.392 0.875,0.876 0,0.482 -0.393,0.874 -0.875,0.874 -0.483,0 -0.875,-0.392 -0.875,-0.874 0,-0.484 0.392,-0.876 0.875,-0.876 z"
     id="path148"
     style="fill:#808000"
     inkscape:connector-curvature="0" /><path
     d="m 20.986752,46.770993 c 0.001,-0.483 0.393,-0.874 0.875,-0.874 0.482,0 0.873,0.391 0.874,0.874 h 0.542 v -3.521 h -2.833 v 3.521 h 0.542 z m 0.875,-2.955 c 0.482,0 0.875,0.392 0.875,0.876 0,0.482 -0.393,0.874 -0.875,0.874 -0.483,0 -0.875,-0.392 -0.875,-0.874 0,-0.484 0.392,-0.876 0.875,-0.876 z"
     id="connector2pin"
     style="fill:#808000"
     inkscape:connector-curvature="0" /><path
     d="m 26.620752,46.770993 c 0.002,-0.483 0.393,-0.874 0.875,-0.874 0.482,0 0.873,0.391 0.875,0.874 h 0.541 v -3.521 h -2.832 v 3.521 h 0.541 z m 0.875,-2.955 c 0.482,0 0.875,0.392 0.875,0.876 0,0.482 -0.393,0.874 -0.875,0.874 -0.482,0 -0.875,-0.392 -0.875,-0.874 0,-0.484 0.393,-0.876 0.875,-0.876 z"
     id="path153"
     style="fill:#808000"
     inkscape:connector-curvature="0" /><path
     d="m 26.620752,46.770993 c 0.002,-0.483 0.393,-0.874 0.875,-0.874 0.482,0 0.873,0.391 0.875,0.874 h 0.541 v -3.521 h -2.832 v 3.521 h 0.541 z m 0.875,-2.955 c 0.482,0 0.875,0.392 0.875,0.876 0,0.482 -0.393,0.874 -0.875,0.874 -0.482,0 -0.875,-0.392 -0.875,-0.874 0,-0.484 0.393,-0.876 0.875,-0.876 z"
     id="path155"
     style="fill:#808000"
     inkscape:connector-curvature="0" /><path
     d="m 26.620752,46.770993 c 0.002,-0.483 0.393,-0.874 0.875,-0.874 0.482,0 0.873,0.391 0.875,0.874 h 0.541 v -3.521 h -2.832 v 3.521 h 0.541 z m 0.875,-2.955 c 0.482,0 0.875,0.392 0.875,0.876 0,0.482 -0.393,0.874 -0.875,0.874 -0.482,0 -0.875,-0.392 -0.875,-0.874 0,-0.484 0.393,-0.876 0.875,-0.876 z"
     id="path157"
     style="fill:#808000"
     inkscape:connector-curvature="0" /><path
     d="m 26.620752,46.770993 c 0.002,-0.483 0.393,-0.874 0.875,-0.874 0.482,0 0.873,0.391 0.875,0.874 h 0.541 v -3.521 h -2.832 v 3.521 h 0.541 z m 0.875,-2.955 c 0.482,0 0.875,0.392 0.875,0.876 0,0.482 -0.393,0.874 -0.875,0.874 -0.482,0 -0.875,-0.392 -0.875,-0.874 0,-0.484 0.393,-0.876 0.875,-0.876 z"
     id="connector10pin"
     style="fill:#808000"
     inkscape:connector-curvature="0" /><path
     d="m 32.253752,46.770993 c 0.002,-0.483 0.393,-0.874 0.875,-0.874 0.482,0 0.873,0.391 0.875,0.874 h 0.541 v -3.521 h -2.832 v 3.521 h 0.541 z m 0.875,-2.955 c 0.482,0 0.875,0.392 0.875,0.876 0,0.482 -0.393,0.874 -0.875,0.874 -0.482,0 -0.875,-0.392 -0.875,-0.874 0,-0.484 0.393,-0.876 0.875,-0.876 z"
     id="path162"
     style="fill:#808000"
     inkscape:connector-curvature="0" /><path
     d="m 32.253752,46.770993 c 0.002,-0.483 0.393,-0.874 0.875,-0.874 0.482,0 0.873,0.391 0.875,0.874 h 0.541 v -3.521 h -2.832 v 3.521 h 0.541 z m 0.875,-2.955 c 0.482,0 0.875,0.392 0.875,0.876 0,0.482 -0.393,0.874 -0.875,0.874 -0.482,0 -0.875,-0.392 -0.875,-0.874 0,-0.484 0.393,-0.876 0.875,-0.876 z"
     id="path164"
     style="fill:#808000"
     inkscape:connector-curvature="0" /><path
     d="m 32.253752,46.770993 c 0.002,-0.483 0.393,-0.874 0.875,-0.874 0.482,0 0.873,0.391 0.875,0.874 h 0.541 v -3.521 h -2.832 v 3.521 h 0.541 z m 0.875,-2.955 c 0.482,0 0.875,0.392 0.875,0.876 0,0.482 -0.393,0.874 -0.875,0.874 -0.482,0 -0.875,-0.392 -0.875,-0.874 0,-0.484 0.393,-0.876 0.875,-0.876 z"
     id="path166"
     style="fill:#808000"
     inkscape:connector-curvature="0" /><path
     d="m 32.253752,46.770993 c 0.002,-0.483 0.393,-0.874 0.875,-0.874 0.482,0 0.873,0.391 0.875,0.874 h 0.541 v -3.521 h -2.832 v 3.521 h 0.541 z m 0.875,-2.955 c 0.482,0 0.875,0.392 0.875,0.876 0,0.482 -0.393,0.874 -0.875,0.874 -0.482,0 -0.875,-0.392 -0.875,-0.874 0,-0.484 0.393,-0.876 0.875,-0.876 z"
     id="connector9pin"
     style="fill:#808000"
     inkscape:connector-curvature="0" /><path
     d="m 37.887752,46.770993 c 0.002,-0.483 0.393,-0.874 0.875,-0.874 0.482,0 0.873,0.391 0.875,0.874 h 0.541 v -3.521 h -2.832 v 3.521 h 0.541 z m 0.875,-2.955 c 0.482,0 0.875,0.392 0.875,0.876 0,0.482 -0.393,0.874 -0.875,0.874 -0.482,0 -0.875,-0.392 -0.875,-0.874 0,-0.484 0.392,-0.876 0.875,-0.876 z"
     id="path171"
     style="fill:#808000"
     inkscape:connector-curvature="0" /><path
     d="m 37.887752,46.770993 c 0.002,-0.483 0.393,-0.874 0.875,-0.874 0.482,0 0.873,0.391 0.875,0.874 h 0.541 v -3.521 h -2.832 v 3.521 h 0.541 z m 0.875,-2.955 c 0.482,0 0.875,0.392 0.875,0.876 0,0.482 -0.393,0.874 -0.875,0.874 -0.482,0 -0.875,-0.392 -0.875,-0.874 0,-0.484 0.392,-0.876 0.875,-0.876 z"
     id="path173"
     style="fill:#808000"
     inkscape:connector-curvature="0" /><path
     d="m 37.887752,46.770993 c 0.002,-0.483 0.393,-0.874 0.875,-0.874 0.482,0 0.873,0.391 0.875,0.874 h 0.541 v -3.521 h -2.832 v 3.521 h 0.541 z m 0.875,-2.955 c 0.482,0 0.875,0.392 0.875,0.876 0,0.482 -0.393,0.874 -0.875,0.874 -0.482,0 -0.875,-0.392 -0.875,-0.874 0,-0.484 0.392,-0.876 0.875,-0.876 z"
     id="path175"
     style="fill:#808000"
     inkscape:connector-curvature="0" /><path
     d="m 37.887752,46.770993 c 0.002,-0.483 0.393,-0.874 0.875,-0.874 0.482,0 0.873,0.391 0.875,0.874 h 0.541 v -3.521 h -2.832 v 3.521 h 0.541 z m 0.875,-2.955 c 0.482,0 0.875,0.392 0.875,0.876 0,0.482 -0.393,0.874 -0.875,0.874 -0.482,0 -0.875,-0.392 -0.875,-0.874 0,-0.484 0.392,-0.876 0.875,-0.876 z"
     id="connector0pin"
     style="fill:#808000"
     inkscape:connector-curvature="0" /><path
     d="m 43.520752,46.770993 c 0.002,-0.483 0.393,-0.874 0.875,-0.874 0.482,0 0.873,0.391 0.875,0.874 h 0.541 v -3.521 h -2.832 v 3.521 h 0.541 z m 0.875,-2.955 c 0.482,0 0.875,0.392 0.875,0.876 0,0.482 -0.393,0.874 -0.875,0.874 -0.482,0 -0.875,-0.392 -0.875,-0.874 0,-0.484 0.392,-0.876 0.875,-0.876 z"
     id="path180"
     style="fill:#808000"
     inkscape:connector-curvature="0" /><path
     d="m 43.520752,46.770993 c 0.002,-0.483 0.393,-0.874 0.875,-0.874 0.482,0 0.873,0.391 0.875,0.874 h 0.541 v -3.521 h -2.832 v 3.521 h 0.541 z m 0.875,-2.955 c 0.482,0 0.875,0.392 0.875,0.876 0,0.482 -0.393,0.874 -0.875,0.874 -0.482,0 -0.875,-0.392 -0.875,-0.874 0,-0.484 0.392,-0.876 0.875,-0.876 z"
     id="path182"
     style="fill:#808000"
     inkscape:connector-curvature="0" /><path
     d="m 43.520752,46.770993 c 0.002,-0.483 0.393,-0.874 0.875,-0.874 0.482,0 0.873,0.391 0.875,0.874 h 0.541 v -3.521 h -2.832 v 3.521 h 0.541 z m 0.875,-2.955 c 0.482,0 0.875,0.392 0.875,0.876 0,0.482 -0.393,0.874 -0.875,0.874 -0.482,0 -0.875,-0.392 -0.875,-0.874 0,-0.484 0.392,-0.876 0.875,-0.876 z"
     id="path184"
     style="fill:#808000"
     inkscape:connector-curvature="0" /><path
     d="m 43.520752,46.770993 c 0.002,-0.483 0.393,-0.874 0.875,-0.874 0.482,0 0.873,0.391 0.875,0.874 h 0.541 v -3.521 h -2.832 v 3.521 h 0.541 z m 0.875,-2.955 c 0.482,0 0.875,0.392 0.875,0.876 0,0.482 -0.393,0.874 -0.875,0.874 -0.482,0 -0.875,-0.392 -0.875,-0.874 0,-0.484 0.392,-0.876 0.875,-0.876 z"
     id="connector7pin"
     style="fill:#808000"
     inkscape:connector-curvature="0" /><path
     d="m 45.168752,1.4179934 c -10e-4,0.483 -0.393,0.874 -0.875,0.874 -0.482,0 -0.873,-0.391 -0.874,-0.874 h -0.542 v 3.521 h 2.833 v -3.521 h -0.542 z m -0.875,2.955 c -0.482,0 -0.875,-0.392 -0.875,-0.876 0,-0.482 0.393,-0.874 0.875,-0.874 0.483,0 0.875,0.392 0.875,0.874 0,0.484 -0.392,0.876 -0.875,0.876 z"
     id="path189"
     style="fill:#808000"
     inkscape:connector-curvature="0" /><path
     d="m 45.168752,1.4179934 c -10e-4,0.483 -0.393,0.874 -0.875,0.874 -0.482,0 -0.873,-0.391 -0.874,-0.874 h -0.542 v 3.521 h 2.833 v -3.521 h -0.542 z m -0.875,2.955 c -0.482,0 -0.875,-0.392 -0.875,-0.876 0,-0.482 0.393,-0.874 0.875,-0.874 0.483,0 0.875,0.392 0.875,0.874 0,0.484 -0.392,0.876 -0.875,0.876 z"
     id="path191"
     style="fill:#808000"
     inkscape:connector-curvature="0" /><path
     d="m 45.168752,1.4179934 c -10e-4,0.483 -0.393,0.874 -0.875,0.874 -0.482,0 -0.873,-0.391 -0.874,-0.874 h -0.542 v 3.521 h 2.833 v -3.521 h -0.542 z m -0.875,2.955 c -0.482,0 -0.875,-0.392 -0.875,-0.876 0,-0.482 0.393,-0.874 0.875,-0.874 0.483,0 0.875,0.392 0.875,0.874 0,0.484 -0.392,0.876 -0.875,0.876 z"
     id="path193"
     style="fill:#808000"
     inkscape:connector-curvature="0" /><path
     d="m 45.168752,1.4179934 c -10e-4,0.483 -0.393,0.874 -0.875,0.874 -0.482,0 -0.873,-0.391 -0.874,-0.874 h -0.542 v 3.521 h 2.833 v -3.521 h -0.542 z m -0.875,2.955 c -0.482,0 -0.875,-0.392 -0.875,-0.876 0,-0.482 0.393,-0.874 0.875,-0.874 0.483,0 0.875,0.392 0.875,0.874 0,0.484 -0.392,0.876 -0.875,0.876 z"
     id="connector16pin"
     style="fill:#808000"
     inkscape:connector-curvature="0" /><path
     d="m 39.534752,1.4179934 c -10e-4,0.483 -0.392,0.874 -0.875,0.874 -0.482,0 -0.873,-0.391 -0.874,-0.874 h -0.542 v 3.521 h 2.833 v -3.521 h -0.542 z m -0.875,2.955 c -0.483,0 -0.875,-0.392 -0.875,-0.876 0,-0.482 0.392,-0.874 0.875,-0.874 0.483,0 0.876,0.392 0.876,0.874 0,0.484 -0.392,0.876 -0.876,0.876 z"
     id="path198"
     style="fill:#808000"
     inkscape:connector-curvature="0" /><path
     d="m 39.534752,1.4179934 c -10e-4,0.483 -0.392,0.874 -0.875,0.874 -0.482,0 -0.873,-0.391 -0.874,-0.874 h -0.542 v 3.521 h 2.833 v -3.521 h -0.542 z m -0.875,2.955 c -0.483,0 -0.875,-0.392 -0.875,-0.876 0,-0.482 0.392,-0.874 0.875,-0.874 0.483,0 0.876,0.392 0.876,0.874 0,0.484 -0.392,0.876 -0.876,0.876 z"
     id="path200"
     style="fill:#808000"
     inkscape:connector-curvature="0" /><path
     d="m 39.534752,1.4179934 c -10e-4,0.483 -0.392,0.874 -0.875,0.874 -0.482,0 -0.873,-0.391 -0.874,-0.874 h -0.542 v 3.521 h 2.833 v -3.521 h -0.542 z m -0.875,2.955 c -0.483,0 -0.875,-0.392 -0.875,-0.876 0,-0.482 0.392,-0.874 0.875,-0.874 0.483,0 0.876,0.392 0.876,0.874 0,0.484 -0.392,0.876 -0.876,0.876 z"
     id="path202"
     style="fill:#808000"
     inkscape:connector-curvature="0" /><path
     d="m 39.534752,1.4179934 c -10e-4,0.483 -0.392,0.874 -0.875,0.874 -0.482,0 -0.873,-0.391 -0.874,-0.874 h -0.542 v 3.521 h 2.833 v -3.521 h -0.542 z m -0.875,2.955 c -0.483,0 -0.875,-0.392 -0.875,-0.876 0,-0.482 0.392,-0.874 0.875,-0.874 0.483,0 0.876,0.392 0.876,0.874 0,0.484 -0.392,0.876 -0.876,0.876 z"
     id="connector11pin"
     style="fill:#808000"
     inkscape:connector-curvature="0" /><path
     d="m 33.900752,1.4179934 c -10e-4,0.483 -0.393,0.874 -0.875,0.874 -0.482,0 -0.873,-0.391 -0.874,-0.874 h -0.542 v 3.521 h 2.833 v -3.521 h -0.542 z m -0.875,2.955 c -0.482,0 -0.875,-0.392 -0.875,-0.876 0,-0.482 0.393,-0.874 0.875,-0.874 0.483,0 0.875,0.392 0.875,0.874 0,0.484 -0.391,0.876 -0.875,0.876 z"
     id="path207"
     style="fill:#808000"
     inkscape:connector-curvature="0" /><path
     d="m 33.900752,1.4179934 c -10e-4,0.483 -0.393,0.874 -0.875,0.874 -0.482,0 -0.873,-0.391 -0.874,-0.874 h -0.542 v 3.521 h 2.833 v -3.521 h -0.542 z m -0.875,2.955 c -0.482,0 -0.875,-0.392 -0.875,-0.876 0,-0.482 0.393,-0.874 0.875,-0.874 0.483,0 0.875,0.392 0.875,0.874 0,0.484 -0.391,0.876 -0.875,0.876 z"
     id="path209"
     style="fill:#808000"
     inkscape:connector-curvature="0" /><path
     d="m 33.900752,1.4179934 c -10e-4,0.483 -0.393,0.874 -0.875,0.874 -0.482,0 -0.873,-0.391 -0.874,-0.874 h -0.542 v 3.521 h 2.833 v -3.521 h -0.542 z m -0.875,2.955 c -0.482,0 -0.875,-0.392 -0.875,-0.876 0,-0.482 0.393,-0.874 0.875,-0.874 0.483,0 0.875,0.392 0.875,0.874 0,0.484 -0.391,0.876 -0.875,0.876 z"
     id="path211"
     style="fill:#808000"
     inkscape:connector-curvature="0" /><path
     d="m 33.900752,1.4179934 c -10e-4,0.483 -0.393,0.874 -0.875,0.874 -0.482,0 -0.873,-0.391 -0.874,-0.874 h -0.542 v 3.521 h 2.833 v -3.521 h -0.542 z m -0.875,2.955 c -0.482,0 -0.875,-0.392 -0.875,-0.876 0,-0.482 0.393,-0.874 0.875,-0.874 0.483,0 0.875,0.392 0.875,0.874 0,0.484 -0.391,0.876 -0.875,0.876 z"
     id="connector5pin"
     style="fill:#808000"
     inkscape:connector-curvature="0" /><path
     d="m 28.268752,1.4179934 c -0.002,0.483 -0.393,0.874 -0.875,0.874 -0.482,0 -0.873,-0.391 -0.875,-0.874 h -0.541 v 3.521 h 2.832 v -3.521 h -0.541 z m -0.875,2.955 c -0.482,0 -0.875,-0.392 -0.875,-0.876 0,-0.482 0.393,-0.874 0.875,-0.874 0.482,0 0.875,0.392 0.875,0.874 0,0.484 -0.393,0.876 -0.875,0.876 z"
     id="path216"
     style="fill:#808000"
     inkscape:connector-curvature="0" /><path
     d="m 28.268752,1.4179934 c -0.002,0.483 -0.393,0.874 -0.875,0.874 -0.482,0 -0.873,-0.391 -0.875,-0.874 h -0.541 v 3.521 h 2.832 v -3.521 h -0.541 z m -0.875,2.955 c -0.482,0 -0.875,-0.392 -0.875,-0.876 0,-0.482 0.393,-0.874 0.875,-0.874 0.482,0 0.875,0.392 0.875,0.874 0,0.484 -0.393,0.876 -0.875,0.876 z"
     id="path218"
     style="fill:#808000"
     inkscape:connector-curvature="0" /><path
     d="m 28.268752,1.4179934 c -0.002,0.483 -0.393,0.874 -0.875,0.874 -0.482,0 -0.873,-0.391 -0.875,-0.874 h -0.541 v 3.521 h 2.832 v -3.521 h -0.541 z m -0.875,2.955 c -0.482,0 -0.875,-0.392 -0.875,-0.876 0,-0.482 0.393,-0.874 0.875,-0.874 0.482,0 0.875,0.392 0.875,0.874 0,0.484 -0.393,0.876 -0.875,0.876 z"
     id="path220"
     style="fill:#808000"
     inkscape:connector-curvature="0" /><path
     d="m 28.268752,1.4179934 c -0.002,0.483 -0.393,0.874 -0.875,0.874 -0.482,0 -0.873,-0.391 -0.875,-0.874 h -0.541 v 3.521 h 2.832 v -3.521 h -0.541 z m -0.875,2.955 c -0.482,0 -0.875,-0.392 -0.875,-0.876 0,-0.482 0.393,-0.874 0.875,-0.874 0.482,0 0.875,0.392 0.875,0.874 0,0.484 -0.393,0.876 -0.875,0.876 z"
     id="connector12pin"
     style="fill:#808000"
     inkscape:connector-curvature="0" /><path
     d="m 22.634752,1.4179934 c -0.002,0.483 -0.393,0.874 -0.875,0.874 -0.482,0 -0.873,-0.391 -0.875,-0.874 h -0.541 v 3.521 h 2.832 v -3.521 h -0.541 z m -0.875,2.955 c -0.482,0 -0.875,-0.392 -0.875,-0.876 0,-0.482 0.393,-0.874 0.875,-0.874 0.482,0 0.875,0.392 0.875,0.874 0,0.484 -0.393,0.876 -0.875,0.876 z"
     id="path225"
     style="fill:#808000"
     inkscape:connector-curvature="0" /><path
     d="m 22.634752,1.4179934 c -0.002,0.483 -0.393,0.874 -0.875,0.874 -0.482,0 -0.873,-0.391 -0.875,-0.874 h -0.541 v 3.521 h 2.832 v -3.521 h -0.541 z m -0.875,2.955 c -0.482,0 -0.875,-0.392 -0.875,-0.876 0,-0.482 0.393,-0.874 0.875,-0.874 0.482,0 0.875,0.392 0.875,0.874 0,0.484 -0.393,0.876 -0.875,0.876 z"
     id="path227"
     style="fill:#808000"
     inkscape:connector-curvature="0" /><path
     d="m 22.634752,1.4179934 c -0.002,0.483 -0.393,0.874 -0.875,0.874 -0.482,0 -0.873,-0.391 -0.875,-0.874 h -0.541 v 3.521 h 2.832 v -3.521 h -0.541 z m -0.875,2.955 c -0.482,0 -0.875,-0.392 -0.875,-0.876 0,-0.482 0.393,-0.874 0.875,-0.874 0.482,0 0.875,0.392 0.875,0.874 0,0.484 -0.393,0.876 -0.875,0.876 z"
     id="path229"
     style="fill:#808000"
     inkscape:connector-curvature="0" /><path
     d="m 22.634752,1.4179934 c -0.002,0.483 -0.393,0.874 -0.875,0.874 -0.482,0 -0.873,-0.391 -0.875,-0.874 h -0.541 v 3.521 h 2.832 v -3.521 h -0.541 z m -0.875,2.955 c -0.482,0 -0.875,-0.392 -0.875,-0.876 0,-0.482 0.393,-0.874 0.875,-0.874 0.482,0 0.875,0.392 0.875,0.874 0,0.484 -0.393,0.876 -0.875,0.876 z"
     id="connector13pin"
     style="fill:#808000"
     inkscape:connector-curvature="0" /><path
     d="m 17.001752,1.4179934 c -0.002,0.483 -0.393,0.874 -0.875,0.874 -0.482,0 -0.873,-0.391 -0.875,-0.874 h -0.541 v 3.521 h 2.832 v -3.521 h -0.541 z m -0.875,2.955 c -0.482,0 -0.875,-0.392 -0.875,-0.876 0,-0.482 0.393,-0.874 0.875,-0.874 0.482,0 0.875,0.392 0.875,0.874 0,0.484 -0.393,0.876 -0.875,0.876 z"
     id="path234"
     style="fill:#808000"
     inkscape:connector-curvature="0" /><path
     d="m 17.001752,1.4179934 c -0.002,0.483 -0.393,0.874 -0.875,0.874 -0.482,0 -0.873,-0.391 -0.875,-0.874 h -0.541 v 3.521 h 2.832 v -3.521 h -0.541 z m -0.875,2.955 c -0.482,0 -0.875,-0.392 -0.875,-0.876 0,-0.482 0.393,-0.874 0.875,-0.874 0.482,0 0.875,0.392 0.875,0.874 0,0.484 -0.393,0.876 -0.875,0.876 z"
     id="path236"
     style="fill:#808000"
     inkscape:connector-curvature="0" /><path
     d="m 17.001752,1.4179934 c -0.002,0.483 -0.393,0.874 -0.875,0.874 -0.482,0 -0.873,-0.391 -0.875,-0.874 h -0.541 v 3.521 h 2.832 v -3.521 h -0.541 z m -0.875,2.955 c -0.482,0 -0.875,-0.392 -0.875,-0.876 0,-0.482 0.393,-0.874 0.875,-0.874 0.482,0 0.875,0.392 0.875,0.874 0,0.484 -0.393,0.876 -0.875,0.876 z"
     id="path238"
     style="fill:#808000"
     inkscape:connector-curvature="0" /><path
     d="m 17.001752,1.4179934 c -0.002,0.483 -0.393,0.874 -0.875,0.874 -0.482,0 -0.873,-0.391 -0.875,-0.874 h -0.541 v 3.521 h 2.832 v -3.521 h -0.541 z m -0.875,2.955 c -0.482,0 -0.875,-0.392 -0.875,-0.876 0,-0.482 0.393,-0.874 0.875,-0.874 0.482,0 0.875,0.392 0.875,0.874 0,0.484 -0.393,0.876 -0.875,0.876 z"
     id="connector14pin"
     style="fill:#808000"
     inkscape:connector-curvature="0" /><path
     d="m 11.367752,1.4179934 c -0.002,0.483 -0.393,0.874 -0.875,0.874 -0.482,0 -0.8729996,-0.391 -0.8749996,-0.874 h -0.541 v 3.521 h 2.8319996 v -3.521 h -0.541 z m -0.875,2.955 c -0.482,0 -0.8749996,-0.392 -0.8749996,-0.876 0,-0.482 0.3929996,-0.874 0.8749996,-0.874 0.482,0 0.875,0.392 0.875,0.874 0,0.484 -0.393,0.876 -0.875,0.876 z"
     id="path243"
     style="fill:#808000"
     inkscape:connector-curvature="0" /><path
     d="m 11.367752,1.4179934 c -0.002,0.483 -0.393,0.874 -0.875,0.874 -0.482,0 -0.8729996,-0.391 -0.8749996,-0.874 h -0.541 v 3.521 h 2.8319996 v -3.521 h -0.541 z m -0.875,2.955 c -0.482,0 -0.8749996,-0.392 -0.8749996,-0.876 0,-0.482 0.3929996,-0.874 0.8749996,-0.874 0.482,0 0.875,0.392 0.875,0.874 0,0.484 -0.393,0.876 -0.875,0.876 z"
     id="path245"
     style="fill:#808000"
     inkscape:connector-curvature="0" /><path
     d="m 11.367752,1.4179934 c -0.002,0.483 -0.393,0.874 -0.875,0.874 -0.482,0 -0.8729996,-0.391 -0.8749996,-0.874 h -0.541 v 3.521 h 2.8319996 v -3.521 h -0.541 z m -0.875,2.955 c -0.482,0 -0.8749996,-0.392 -0.8749996,-0.876 0,-0.482 0.3929996,-0.874 0.8749996,-0.874 0.482,0 0.875,0.392 0.875,0.874 0,0.484 -0.393,0.876 -0.875,0.876 z"
     id="path247"
     style="fill:#808000"
     inkscape:connector-curvature="0" /><path
     d="m 11.367752,1.4179934 c -0.002,0.483 -0.393,0.874 -0.875,0.874 -0.482,0 -0.8729996,-0.391 -0.8749996,-0.874 h -0.541 v 3.521 h 2.8319996 v -3.521 h -0.541 z m -0.875,2.955 c -0.482,0 -0.8749996,-0.392 -0.8749996,-0.876 0,-0.482 0.3929996,-0.874 0.8749996,-0.874 0.482,0 0.875,0.392 0.875,0.874 0,0.484 -0.393,0.876 -0.875,0.876 z"
     id="connector15pin"
     style="fill:#808000"
     inkscape:connector-curvature="0" /><path
     d="m 5.734752,1.4179934 c -0.002,0.483 -0.393,0.874 -0.875,0.874 -0.482,0 -0.873,-0.391 -0.875,-0.874 h -0.541 v 3.521 h 2.832 v -3.521 h -0.541 z m -0.875,2.955 c -0.482,0 -0.875,-0.392 -0.875,-0.876 0,-0.482 0.393,-0.874 0.875,-0.874 0.482,0 0.875,0.392 0.875,0.874 0,0.484 -0.393,0.876 -0.875,0.876 z"
     id="path252"
     style="fill:#808000"
     inkscape:connector-curvature="0" /><path
     d="m 5.734752,1.4179934 c -0.002,0.483 -0.393,0.874 -0.875,0.874 -0.482,0 -0.873,-0.391 -0.875,-0.874 h -0.541 v 3.521 h 2.832 v -3.521 h -0.541 z m -0.875,2.955 c -0.482,0 -0.875,-0.392 -0.875,-0.876 0,-0.482 0.393,-0.874 0.875,-0.874 0.482,0 0.875,0.392 0.875,0.874 0,0.484 -0.393,0.876 -0.875,0.876 z"
     id="path254"
     style="fill:#808000"
     inkscape:connector-curvature="0" /><path
     d="m 5.734752,1.4179934 c -0.002,0.483 -0.393,0.874 -0.875,0.874 -0.482,0 -0.873,-0.391 -0.875,-0.874 h -0.541 v 3.521 h 2.832 v -3.521 h -0.541 z m -0.875,2.955 c -0.482,0 -0.875,-0.392 -0.875,-0.876 0,-0.482 0.393,-0.874 0.875,-0.874 0.482,0 0.875,0.392 0.875,0.874 0,0.484 -0.393,0.876 -0.875,0.876 z"
     id="path256"
     style="fill:#808000"
     inkscape:connector-curvature="0" /><path
     d="m 5.734752,1.4179934 c -0.002,0.483 -0.393,0.874 -0.875,0.874 -0.482,0 -0.873,-0.391 -0.875,-0.874 h -0.541 v 3.521 h 2.832 v -3.521 h -0.541 z m -0.875,2.955 c -0.482,0 -0.875,-0.392 -0.875,-0.876 0,-0.482 0.393,-0.874 0.875,-0.874 0.482,0 0.875,0.392 0.875,0.874 0,0.484 -0.393,0.876 -0.875,0.876 z"
     id="connector1pin"
     style="fill:#808000"
     inkscape:connector-curvature="0" /><path
     inkscape:connector-curvature="0"
     d="m 1.2993876,8.652001 c 0.483,0.002 0.874,0.393 0.874,0.875 0,0.482 -0.391,0.873 -0.874,0.875 l 0,0.541 3.521001,0 0,-2.832 -3.521001,0 0,0.541 z m 2.955001,0.875 c 0,0.482 -0.392001,0.875 -0.876,0.875 -0.482001,0 -0.874001,-0.393 -0.874001,-0.875 0,-0.482 0.392,-0.875 0.874001,-0.875 0.483999,0 0.876,0.393 0.876,0.875 z"
     id="connector17pin"
     style="fill:#808000" /><path
     inkscape:connector-curvature="0"
     d="m 1.443764,14.214739 c 0.483,0.002 0.874,0.393 0.874,0.875 0,0.482 -0.391,0.873 -0.874,0.875 l 0,0.541 3.521001,0 0,-2.832 -3.521001,0 0,0.541 z m 2.955001,0.875 c 0,0.482 -0.392001,0.875 -0.876,0.875 -0.482001,0 -0.874001,-0.393 -0.874001,-0.875 0,-0.482 0.392,-0.875 0.874001,-0.875 0.483999,0 0.876,0.393 0.876,0.875 z"
     id="connector18pin"
     style="fill:#808000" /><path
     inkscape:connector-curvature="0"
     d="m 1.2714038,19.989641 c 0.4830001,0.002 0.874,0.393 0.874,0.875 0,0.482 -0.3909999,0.873 -0.874,0.875 l 0,0.541 3.5210011,0 0,-2.832 -3.5210011,0 0,0.541 z m 2.9550011,0.875 c 0,0.482 -0.392001,0.875 -0.876,0.875 -0.482001,0 -0.874001,-0.393 -0.874001,-0.875 0,-0.482 0.392,-0.875 0.874001,-0.875 0.483999,0 0.876,0.393 0.876,0.875 z"
     id="connector19pin"
     style="fill:#808000" /><path
     inkscape:connector-curvature="0"
     d="m 1.2714038,25.696756 c 0.4830001,0.002 0.874,0.393 0.874,0.875 0,0.482 -0.3909999,0.873 -0.874,0.875 l 0,0.541 3.5210011,0 0,-2.832 -3.5210011,0 0,0.541 z m 2.9550011,0.875 c 0,0.482 -0.392001,0.875 -0.876,0.875 -0.482001,0 -0.874001,-0.393 -0.874001,-0.875 0,-0.482 0.392,-0.875 0.874001,-0.875 0.483999,0 0.876,0.393 0.876,0.875 z"
     id="connector20pin"
     style="fill:#808000" /><path
     inkscape:connector-curvature="0"
     d="m 1.4157802,31.684127 c 0.483,0.002 0.874,0.393 0.874,0.875 0,0.482 -0.391,0.873 -0.874,0.875 l 0,0.541 3.521001,0 0,-2.832 -3.521001,0 0,0.541 z m 2.955001,0.875 c 0,0.482 -0.392001,0.875 -0.876,0.875 -0.482001,0 -0.874001,-0.393 -0.874001,-0.875 0,-0.482 0.392,-0.875 0.874001,-0.875 0.483999,0 0.876,0.393 0.876,0.875 z"
     id="connector21pin"
     style="fill:#808000" /><path
     inkscape:connector-curvature="0"
     d="m 1.2714038,37.535618 c 0.483,0.002 0.874,0.393 0.874,0.875 0,0.482 -0.391,0.873 -0.874,0.875 l 0,0.541 3.521001,0 0,-2.832 -3.521001,0 0,0.541 z m 2.955001,0.875 c 0,0.482 -0.392001,0.875 -0.876,0.875 -0.482001,0 -0.874001,-0.393 -0.874001,-0.875 0,-0.482 0.392,-0.875 0.874001,-0.875 0.483999,0 0.876,0.393 0.876,0.875 z"
     id="connector22pin"
     style="fill:#808000" /></svg>