<?xml version="1.0" encoding="UTF-8" standalone="no"?>
<!-- Generator: Adobe Illustrator 14.0.0, SVG Export Plug-In . SVG Version: 6.00 Build 43363)  -->

<svg
   xmlns:dc="http://purl.org/dc/elements/1.1/"
   xmlns:cc="http://creativecommons.org/ns#"
   xmlns:rdf="http://www.w3.org/1999/02/22-rdf-syntax-ns#"
   xmlns:svg="http://www.w3.org/2000/svg"
   xmlns="http://www.w3.org/2000/svg"
   xmlns:sodipodi="http://sodipodi.sourceforge.net/DTD/sodipodi-0.dtd"
   xmlns:inkscape="http://www.inkscape.org/namespaces/inkscape"
   width="63.779526"
   x="0px"
   version="1.1"
   y="0px"
   height="46.062992"
   viewBox="0 0 51.023596 36.850503"
   id="svg_1_"
   xml:space="preserve"
   inkscape:version="0.48.4 r9939"
   sodipodi:docname="svg.breadboard.uSD_module_1_breadboard.svg"><metadata
     id="metadata321"><rdf:RDF><cc:Work
         rdf:about=""><dc:format>image/svg+xml</dc:format><dc:type
           rdf:resource="http://purl.org/dc/dcmitype/StillImage" /></cc:Work></rdf:RDF></metadata><defs
     id="defs319" /><sodipodi:namedview
     pagecolor="#ffffff"
     bordercolor="#666666"
     borderopacity="1"
     objecttolerance="10"
     gridtolerance="10"
     guidetolerance="10"
     inkscape:pageopacity="0"
     inkscape:pageshadow="2"
     inkscape:window-width="1024"
     inkscape:window-height="721"
     id="namedview317"
     showgrid="true"
     inkscape:zoom="4.77"
     inkscape:cx="3.8868678"
     inkscape:cy="-1.2578956"
     inkscape:window-x="0"
     inkscape:window-y="25"
     inkscape:window-maximized="1"
     inkscape:current-layer="svg_1_"
     units="mm"
     inkscape:document-units="mm"
     showguides="true"
     inkscape:guide-bbox="true"><inkscape:grid
       type="xygrid"
       id="grid3766"
       empspacing="5"
       visible="true"
       enabled="true"
       snapvisiblegridlinesonly="true"
       units="mm"
       spacingx="2.54mm"
       spacingy="2.54mm" /></sodipodi:namedview><rect
     style="fill:#008000;fill-opacity:1;stroke:#787878;stroke-width:0;stroke-miterlimit:4;stroke-opacity:1;stroke-dasharray:none"
     id="rect3332"
     width="51.023773"
     height="36.850502"
     x="-8.7988054e-05"
     y="0" /><g
     id="g3558"
     transform="translate(-0.42454493,-3.354778)"><rect
       id="connector4pin"
       height="2.369"
       y="35.049332"
       x="3.428623"
       width="2.368"
       style="fill:none" /><rect
       id="connector3pin"
       height="2.368"
       y="27.847336"
       x="3.428623"
       width="2.368"
       style="fill:none" /><rect
       id="connector2pin"
       height="2.368"
       y="20.647326"
       x="3.428623"
       width="2.368"
       style="fill:none" /><rect
       id="connector1pin"
       height="2.368"
       y="13.446321"
       x="3.428623"
       width="2.368"
       style="fill:none" /><rect
       id="connector0pin"
       height="2.368"
       y="6.2453322"
       x="3.428623"
       width="2.368"
       style="fill:none" /><rect
       id="connector4terminal"
       height="1.1849999"
       y="35.641312"
       x="4.0206332"
       width="1.184"
       style="fill:none" /><rect
       id="connector3terminal"
       height="1.184"
       y="28.439316"
       x="4.0206332"
       width="1.184"
       style="fill:none" /><rect
       id="connector2terminal"
       height="1.184"
       y="21.239336"
       x="4.0206332"
       width="1.184"
       style="fill:none" /><rect
       id="connector1terminal"
       height="1.184"
       y="14.038332"
       x="4.0206332"
       width="1.184"
       style="fill:none" /><rect
       id="connector0terminal"
       height="1.184"
       y="6.8373275"
       x="4.0206332"
       width="1.184"
       style="fill:none" /><rect
       width="2.2969999"
       x="3.4626272"
       y="6.279325"
       height="2.299"
       id="rect63"
       style="fill:#8d8c8c" /><rect
       width="1.182"
       x="4.0216327"
       y="6.8383269"
       height="1.182"
       id="rect65"
       style="fill:#8c8663" /><polygon
       transform="translate(2.7106301,-16.587675)"
       points="0.752,22.867 1.311,23.426 2.491,23.426 3.049,22.867 "
       id="polygon67"
       style="fill:#b8af82" /><polygon
       transform="translate(2.7106301,-16.587675)"
       points="2.491,24.607 2.491,23.426 3.049,22.867 3.049,25.166 "
       id="polygon69"
       style="fill:#80795b" /><polygon
       transform="translate(2.7106301,-16.587675)"
       points="1.311,24.607 2.491,24.607 3.049,25.166 0.752,25.166 "
       id="polygon71"
       style="fill:#5e5b43" /><polygon
       transform="translate(2.7106301,-16.587675)"
       points="0.752,22.867 1.311,23.426 1.311,24.607 0.752,25.166 "
       id="polygon73"
       style="fill:#9a916c" /><rect
       width="2.2969999"
       x="3.4626272"
       y="13.480326"
       height="2.299"
       id="rect75"
       style="fill:#8d8c8c" /><rect
       width="1.182"
       x="4.0216327"
       y="14.037325"
       height="1.184"
       id="rect77"
       style="fill:#8c8663" /><polygon
       transform="translate(2.7106301,-16.587675)"
       points="0.752,30.068 1.311,30.625 2.491,30.625 3.049,30.068 "
       id="polygon79"
       style="fill:#b8af82" /><polygon
       transform="translate(2.7106301,-16.587675)"
       points="2.491,31.809 2.491,30.625 3.049,30.068 3.049,32.367 "
       id="polygon81"
       style="fill:#80795b" /><polygon
       transform="translate(2.7106301,-16.587675)"
       points="1.311,31.809 2.491,31.809 3.049,32.367 0.752,32.367 "
       id="polygon83"
       style="fill:#5e5b43" /><polygon
       transform="translate(2.7106301,-16.587675)"
       points="0.752,30.068 1.311,30.625 1.311,31.809 0.752,32.367 "
       id="polygon85"
       style="fill:#9a916c" /><rect
       width="2.2969999"
       x="3.4626272"
       y="20.680326"
       height="2.299"
       id="rect87"
       style="fill:#8d8c8c" /><rect
       width="1.182"
       x="4.0216327"
       y="21.238325"
       height="1.182"
       id="rect89"
       style="fill:#8c8663" /><polygon
       transform="translate(2.7106301,-16.587675)"
       points="0.752,37.268 1.311,37.826 2.491,37.826 3.049,37.268 "
       id="polygon91"
       style="fill:#b8af82" /><polygon
       transform="translate(2.7106301,-16.587675)"
       points="2.491,39.008 2.491,37.826 3.049,37.268 3.049,39.566 "
       id="polygon93"
       style="fill:#80795b" /><polygon
       transform="translate(2.7106301,-16.587675)"
       points="1.311,39.008 2.491,39.008 3.049,39.566 0.752,39.566 "
       id="polygon95"
       style="fill:#5e5b43" /><polygon
       transform="translate(2.7106301,-16.587675)"
       points="0.752,37.268 1.311,37.826 1.311,39.008 0.752,39.566 "
       id="polygon97"
       style="fill:#9a916c" /><rect
       width="2.2969999"
       x="3.4626272"
       y="27.880323"
       height="2.299"
       id="rect99"
       style="fill:#8d8c8c" /><rect
       width="1.182"
       x="4.0216327"
       y="28.437326"
       height="1.184"
       id="rect101"
       style="fill:#8c8663" /><polygon
       transform="translate(2.7106301,-16.587675)"
       points="0.752,44.468 1.311,45.025 2.491,45.025 3.049,44.468 "
       id="polygon103"
       style="fill:#b8af82" /><polygon
       transform="translate(2.7106301,-16.587675)"
       points="2.491,46.208 2.491,45.025 3.049,44.468 3.049,46.768 "
       id="polygon105"
       style="fill:#80795b" /><polygon
       transform="translate(2.7106301,-16.587675)"
       points="1.311,46.208 2.491,46.208 3.049,46.768 0.752,46.768 "
       id="polygon107"
       style="fill:#5e5b43" /><polygon
       transform="translate(2.7106301,-16.587675)"
       points="0.752,44.468 1.311,45.025 1.311,46.208 0.752,46.768 "
       id="polygon109"
       style="fill:#9a916c" /><rect
       width="2.2969999"
       x="3.4626272"
       y="35.080326"
       height="2.299"
       id="rect111"
       style="fill:#8d8c8c" /><rect
       width="1.182"
       x="4.0216327"
       y="35.639328"
       height="1.183"
       id="rect113"
       style="fill:#8c8663" /><polygon
       transform="translate(2.7106301,-16.587675)"
       points="0.752,51.668 1.311,52.227 2.491,52.227 3.049,51.668 "
       id="polygon115"
       style="fill:#b8af82" /><polygon
       transform="translate(2.7106301,-16.587675)"
       points="2.491,53.408 2.491,52.227 3.049,51.668 3.049,53.967 "
       id="polygon117"
       style="fill:#80795b" /><polygon
       transform="translate(2.7106301,-16.587675)"
       points="1.311,53.408 2.491,53.408 3.049,53.967 0.752,53.967 "
       id="polygon119"
       style="fill:#5e5b43" /><polygon
       transform="translate(2.7106301,-16.587675)"
       points="0.752,51.668 1.311,52.227 1.311,53.408 0.752,53.967 "
       id="polygon121"
       style="fill:#9a916c" /></g><g
     id="g3516"
     transform="matrix(-1,0,0,-1,-64.773575,28.407887)"><rect
       id="connector9pin"
       height="2.3670001"
       y="23.421652"
       x="-112.74129"
       width="2.368"
       style="fill:none" /><rect
       id="connector8pin"
       height="2.3670001"
       y="16.22167"
       x="-112.74129"
       width="2.368"
       style="fill:none" /><rect
       id="connector7pin"
       height="2.3670001"
       y="9.0206509"
       x="-112.74129"
       width="2.368"
       style="fill:none" /><rect
       id="connector6pin"
       height="2.3670001"
       y="1.8196621"
       x="-112.74129"
       width="2.368"
       style="fill:none" /><rect
       id="connector5pin"
       height="2.3670001"
       y="-5.379343"
       x="-112.74129"
       width="2.368"
       style="fill:none" /><rect
       id="connector9terminal"
       height="1.184"
       y="24.012655"
       x="-112.14928"
       width="1.184"
       style="fill:none" /><rect
       id="connector8terminal"
       height="1.184"
       y="16.81365"
       x="-112.14928"
       width="1.184"
       style="fill:none" /><rect
       id="connector7terminal"
       height="1.184"
       y="9.6126614"
       x="-112.14928"
       width="1.184"
       style="fill:none" /><rect
       id="connector6terminal"
       height="1.184"
       y="2.4116421"
       x="-112.14928"
       width="1.184"
       style="fill:none" /><rect
       id="connector5terminal"
       height="1.184"
       y="-4.7873325"
       x="-112.14928"
       width="1.184"
       style="fill:none" /><rect
       width="2.2969999"
       x="-112.70728"
       y="-5.3483386"
       height="2.299"
       id="rect123"
       style="fill:#8d8c8c" /><rect
       width="1.182"
       x="-112.14828"
       y="-4.7913394"
       height="1.184"
       id="rect125"
       style="fill:#8c8663" /><polygon
       transform="translate(-113.45928,-64.217338)"
       points="2.491,59.426 3.049,58.869 0.752,58.869 1.311,59.426 "
       id="polygon127"
       style="fill:#b8af82" /><polygon
       transform="translate(-113.45928,-64.217338)"
       points="3.049,58.869 3.049,61.168 2.491,60.609 2.491,59.426 "
       id="polygon129"
       style="fill:#80795b" /><polygon
       transform="translate(-113.45928,-64.217338)"
       points="3.049,61.168 0.752,61.168 1.311,60.609 2.491,60.609 "
       id="polygon131"
       style="fill:#5e5b43" /><polygon
       transform="translate(-113.45928,-64.217338)"
       points="1.311,60.609 0.752,61.168 0.752,58.869 1.311,59.426 "
       id="polygon133"
       style="fill:#9a916c" /><rect
       width="2.2969999"
       x="-112.70728"
       y="1.8506628"
       height="2.299"
       id="rect135"
       style="fill:#8d8c8c" /><rect
       width="1.182"
       x="-112.14828"
       y="2.4096608"
       height="1.182"
       id="rect137"
       style="fill:#8c8663" /><polygon
       transform="translate(-113.45928,-64.217338)"
       points="2.491,66.627 3.049,66.068 0.752,66.068 1.311,66.627 "
       id="polygon139"
       style="fill:#b8af82" /><polygon
       transform="translate(-113.45928,-64.217338)"
       points="3.049,66.068 3.049,68.367 2.491,67.809 2.491,66.627 "
       id="polygon141"
       style="fill:#80795b" /><polygon
       transform="translate(-113.45928,-64.217338)"
       points="3.049,68.367 0.752,68.367 1.311,67.809 2.491,67.809 "
       id="polygon143"
       style="fill:#5e5b43" /><polygon
       transform="translate(-113.45928,-64.217338)"
       points="1.311,67.809 0.752,68.367 0.752,66.068 1.311,66.627 "
       id="polygon145"
       style="fill:#9a916c" /><rect
       width="2.2969999"
       x="-112.70728"
       y="9.052659"
       height="2.299"
       id="rect147"
       style="fill:#8d8c8c" /><rect
       width="1.182"
       x="-112.14828"
       y="9.6086588"
       height="1.184"
       id="rect149"
       style="fill:#8c8663" /><polygon
       transform="translate(-113.45928,-64.217338)"
       points="2.491,73.826 3.049,73.27 0.752,73.27 1.311,73.826 "
       id="polygon151"
       style="fill:#b8af82" /><polygon
       transform="translate(-113.45928,-64.217338)"
       points="3.049,73.27 3.049,75.568 2.491,75.01 2.491,73.826 "
       id="polygon153"
       style="fill:#80795b" /><polygon
       transform="translate(-113.45928,-64.217338)"
       points="3.049,75.568 0.752,75.568 1.311,75.01 2.491,75.01 "
       id="polygon155"
       style="fill:#5e5b43" /><polygon
       transform="translate(-113.45928,-64.217338)"
       points="1.311,75.01 0.752,75.568 0.752,73.27 1.311,73.826 "
       id="polygon157"
       style="fill:#9a916c" /><rect
       width="2.2969999"
       x="-112.70728"
       y="16.251663"
       height="2.299"
       id="rect159"
       style="fill:#8d8c8c" /><rect
       width="1.182"
       x="-112.14828"
       y="16.809662"
       height="1.182"
       id="rect161"
       style="fill:#8c8663" /><polygon
       transform="translate(-113.45928,-64.217338)"
       points="2.491,81.027 3.049,80.469 0.752,80.469 1.311,81.027 "
       id="polygon163"
       style="fill:#b8af82" /><polygon
       transform="translate(-113.45928,-64.217338)"
       points="3.049,80.469 3.049,82.768 2.491,82.209 2.491,81.027 "
       id="polygon165"
       style="fill:#80795b" /><polygon
       transform="translate(-113.45928,-64.217338)"
       points="3.049,82.768 0.752,82.768 1.311,82.209 2.491,82.209 "
       id="polygon167"
       style="fill:#5e5b43" /><polygon
       transform="translate(-113.45928,-64.217338)"
       points="1.311,82.209 0.752,82.768 0.752,80.469 1.311,81.027 "
       id="polygon169"
       style="fill:#9a916c" /><rect
       width="2.2969999"
       x="-112.70728"
       y="23.45266"
       height="2.299"
       id="rect171"
       style="fill:#8d8c8c" /><rect
       width="1.182"
       x="-112.14828"
       y="24.009659"
       height="1.1849999"
       id="rect173"
       style="fill:#8c8663" /><polygon
       transform="translate(-113.45928,-64.217338)"
       points="2.491,88.227 3.049,87.67 0.752,87.67 1.311,88.227 "
       id="polygon175"
       style="fill:#b8af82" /><polygon
       transform="translate(-113.45928,-64.217338)"
       points="3.049,87.67 3.049,89.969 2.491,89.41 2.491,88.227 "
       id="polygon177"
       style="fill:#80795b" /><polygon
       transform="translate(-113.45928,-64.217338)"
       points="3.049,89.969 0.752,89.969 1.311,89.41 2.491,89.41 "
       id="polygon179"
       style="fill:#5e5b43" /><polygon
       transform="translate(-113.45928,-64.217338)"
       points="1.311,89.41 0.752,89.969 0.752,87.67 1.311,88.227 "
       id="polygon181"
       style="fill:#9a916c" /></g><rect
     style="fill:#4d4d4d;fill-opacity:1;stroke:#666666;stroke-width:0;stroke-miterlimit:4;stroke-opacity:1;stroke-dasharray:none"
     id="rect3169"
     width="34.311214"
     height="28.511614"
     x="8.9592676"
     y="4.6491499" /><rect
     style="fill:#666666;fill-opacity:1;stroke:#666666;stroke-width:0;stroke-miterlimit:4;stroke-opacity:1;stroke-dasharray:none"
     id="rect3171"
     width="26.499031"
     height="1.6771538"
     x="16.77145"
     y="33.160763" /><text
     xml:space="preserve"
     style="font-size:19.20005608px;font-style:normal;font-weight:normal;line-height:125%;letter-spacing:0px;word-spacing:0px;fill:#000000;fill-opacity:1;stroke:none;font-family:Sans"
     x="16.353567"
     y="21.33737"
     id="text3173"
     sodipodi:linespacing="125%"><tspan
       sodipodi:role="line"
       id="tspan3175"
       x="16.353567"
       y="21.33737"
       style="font-size:8.00002384px;font-weight:bold;fill:#f9f9f9;-inkscape-font-specification:Sans Bold">uSD</tspan></text>
</svg>